<?xml version="1.0" encoding="UTF-8" standalone="no"?>
<!-- Generated by graphviz version 2.40.1 (20161225.0304)
 -->

<!-- Title: %3 Pages: 1 -->

<svg
   xmlns:dc="http://purl.org/dc/elements/1.1/"
   xmlns:cc="http://creativecommons.org/ns#"
   xmlns:rdf="http://www.w3.org/1999/02/22-rdf-syntax-ns#"
   xmlns:svg="http://www.w3.org/2000/svg"
   xmlns="http://www.w3.org/2000/svg"
   xmlns:sodipodi="http://sodipodi.sourceforge.net/DTD/sodipodi-0.dtd"
   xmlns:inkscape="http://www.inkscape.org/namespaces/inkscape"
   width="1017.1987pt"
   height="325pt"
   viewBox="0 0 1016.8017 325"
   version="1.1"
   id="svg1233"
   sodipodi:docname="schema.svg"
   inkscape:version="0.92.3 (2405546, 2018-03-11)">
  <sodipodi:namedview
     pagecolor="#ffffff"
     bordercolor="#666666"
     borderopacity="1"
     objecttolerance="10"
     gridtolerance="10"
     guidetolerance="10"
     inkscape:pageopacity="0"
     inkscape:pageshadow="2"
     inkscape:window-width="1768"
     inkscape:window-height="1055"
     id="namedview1235"
     showgrid="false"
     inkscape:zoom="0.87073171"
     inkscape:cx="678.13801"
     inkscape:cy="242.66666"
     inkscape:window-x="152"
     inkscape:window-y="0"
     inkscape:window-maximized="1"
     inkscape:current-layer="svg1233"
     fit-margin-top="0"
     fit-margin-left="0"
     fit-margin-right="0"
     fit-margin-bottom="0" />
  <metadata
     id="metadata1239">
    <rdf:RDF>
      <cc:Work
         rdf:about="">
        <dc:format>image/svg+xml</dc:format>
        <dc:type
           rdf:resource="http://purl.org/dc/dcmitype/StillImage" />
        <dc:title></dc:title>
      </cc:Work>
    </rdf:RDF>
  </metadata>
  <defs
     id="defs1237" />
  <ellipse
     style="fill:#abd7e6;stroke:#000000"
     id="ellipse828"
     ry="18"
     rx="27"
     cy="18.5"
     cx="351.90613" />
  <text
     style="font-size:14px;font-family:'Latin Modern Sans';text-anchor:middle;fill:#000000"
     id="text830"
     font-size="14.00"
     y="22.200012"
     x="351.90613">/</text>
  <ellipse
     style="fill:#abd7e6;stroke:#000000"
     id="ellipse835"
     ry="18"
     rx="27"
     cy="90.5"
     cx="400.90613" />
  <text
     style="font-size:14px;font-family:'Latin Modern Sans';text-anchor:middle;fill:#000000"
     id="text837"
     font-size="14.00"
     y="94.199997"
     x="400.90613">0</text>
  <path
     style="fill:none;stroke:#000000"
     inkscape:connector-curvature="0"
     id="path842"
     d="m 363.2708,35.1992 c 6.1226,8.9965 13.799,20.2761 20.6194,30.2979" />
  <polygon
     transform="translate(0.10350472,324.5)"
     style="fill:#000000;stroke:#000000"
     id="polygon844"
     points="386.7667,-260.845 389.4995,-250.6087 380.9797,-256.9066 " />
  <polygon
     transform="translate(0.10350472,324.5)"
     style="fill:#ffbfca;stroke:#000000"
     id="polygon849"
     points="281.046,-216 324.5591,-216 355.3275,-226.5442 355.3275,-241.4558 324.5591,-252 281.046,-252 250.2776,-241.4558 250.2776,-226.5442 " />
  <text
     style="font-size:14px;font-family:'Latin Modern Sans';text-anchor:middle;fill:#000000"
     id="text851"
     font-size="14.00"
     y="94.199997"
     x="302.90613">VERSION</text>
  <path
     style="fill:none;stroke:#000000"
     inkscape:connector-curvature="0"
     id="path856"
     d="m 340.5413,35.1992 c -5.801,8.5239 -12.9968,19.0974 -19.5379,28.7088" />
  <polygon
     transform="translate(0.10350472,324.5)"
     style="fill:#000000;stroke:#000000"
     id="polygon858"
     points="323.6555,-258.4201 315.1357,-252.1222 317.8685,-262.3585 " />
  <ellipse
     style="fill:#abd7e6;stroke:#000000"
     id="ellipse863"
     ry="18"
     rx="61.990002"
     cy="162.5"
     cx="705.90613" />
  <text
     style="font-size:14px;font-family:'Latin Modern Sans';text-anchor:middle;fill:#000000"
     id="text865"
     font-size="14.00"
     y="166.2"
     x="705.90613">PermutedData</text>
  <path
     style="fill:none;stroke:#000000"
     inkscape:connector-curvature="0"
     id="path870"
     d="m 426.6899,96.1961 c 43.3053,9.6181 133.3588,29.8386 209.2162,48.3039 4.5606,1.1102 9.2829,2.2802 14.0224,3.4689" />
  <polygon
     transform="translate(0.10350472,324.5)"
     style="fill:#000000;stroke:#000000"
     id="polygon872"
     points="650.6936,-179.9217 659.5312,-174.0781 648.9784,-173.1351 " />
  <ellipse
     style="fill:#abd7e6;stroke:#000000"
     id="ellipse877"
     ry="18"
     rx="46.292301"
     cy="162.5"
     cx="854.90613" />
  <text
     style="font-size:14px;font-family:'Latin Modern Sans';text-anchor:middle;fill:#000000"
     id="text879"
     font-size="14.00"
     y="166.2"
     x="854.90613">MipMaps</text>
  <path
     style="fill:none;stroke:#000000"
     inkscape:connector-curvature="0"
     id="path884"
     d="m 427.9336,93.5893 c 61.9749,7.2565 218.9971,26.6248 348.9725,50.9107 9.4294,1.7619 19.4443,3.8822 29.0436,6.0396" />
  <polygon
     transform="translate(0.10350472,324.5)"
     style="fill:#000000;stroke:#000000"
     id="polygon886"
     points="806.6916,-177.3574 815.6572,-171.7122 805.128,-170.5343 " />
  <ellipse
     style="fill:#abd7e6;stroke:#000000"
     id="ellipse891"
     ry="18"
     rx="42.4939"
     cy="162.5"
     cx="313.90613" />
  <text
     style="font-size:14px;font-family:'Latin Modern Sans';text-anchor:middle;fill:#000000"
     id="text893"
     font-size="14.00"
     y="166.2"
     x="313.90613">Statistics</text>
  <path
     style="fill:none;stroke:#000000"
     inkscape:connector-curvature="0"
     id="path898"
     d="m 383.7177,104.7249 c -12.0877,10.0035 -28.5171,23.6003 -42.4011,35.0905" />
  <polygon
     transform="translate(0.10350472,324.5)"
     style="fill:#000000;stroke:#000000"
     id="polygon900"
     points="343.3201,-181.8852 333.3847,-178.2059 338.8571,-187.278 " />
  <polygon
     transform="translate(0.10350472,324.5)"
     style="fill:#ffbfca;stroke:#000000"
     id="polygon905"
     points="23.983,-144 57.6222,-144 81.4086,-154.5442 81.4086,-169.4558 57.6222,-180 23.983,-180 0.1965,-169.4558 0.1965,-154.5442 " />
  <text
     style="font-size:14px;font-family:'Latin Modern Sans';text-anchor:middle;fill:#000000"
     id="text907"
     font-size="14.00"
     y="166.2"
     x="40.906105">BUNIT</text>
  <path
     style="fill:none;stroke:#000000"
     inkscape:connector-curvature="0"
     id="path912"
     d="m 380.0721,102.3765 c -4.8523,2.3505 -10.0881,4.5686 -15.166,6.1235 -117.4419,35.9617 -154.6407,7.0314 -273.999995,36 -3.2277,0.7833 -6.5363,1.7023 -9.8393,2.7033" />
  <polygon
     transform="translate(0.10350472,324.5)"
     style="fill:#000000;stroke:#000000"
     id="polygon914"
     points="81.75,-173.872 71.1577,-174.1013 79.5811,-180.5275 " />
  <polygon
     transform="translate(0.10350472,324.5)"
     style="fill:#ffbfca;stroke:#000000"
     id="polygon919"
     points="123.983,-144 157.6222,-144 181.4086,-154.5442 181.4086,-169.4558 157.6222,-180 123.983,-180 100.1965,-169.4558 100.1965,-154.5442 " />
  <text
     style="font-size:14px;font-family:'Latin Modern Sans';text-anchor:middle;fill:#000000"
     id="text921"
     font-size="14.00"
     y="166.2"
     x="140.9061">NAXIS</text>
  <path
     style="fill:none;stroke:#000000"
     inkscape:connector-curvature="0"
     id="path926"
     d="m 379.9824,102.1018 c -4.8477,2.3647 -10.0589,4.6581 -15.0763,6.3982 -74.6115,25.8762 -97.9916,14.5718 -174,36 -3.108,0.8762 -6.3007,1.8492 -9.4969,2.8763" />
  <polygon
     transform="translate(0.10350472,324.5)"
     style="fill:#000000;stroke:#000000"
     id="polygon928"
     points="182.3819,-173.7931 171.7879,-173.9233 180.1509,-180.428 " />
  <polygon
     transform="translate(0.10350472,324.5)"
     style="fill:#ffbfca;stroke:#000000"
     id="polygon933"
     points="215.6188,-144 237.9863,-144 253.8026,-154.5442 253.8026,-169.4558 237.9863,-180 215.6188,-180 199.8026,-169.4558 199.8026,-154.5442 " />
  <text
     style="font-size:14px;font-family:'Latin Modern Sans';text-anchor:middle;fill:#000000"
     id="text935"
     font-size="14.00"
     y="166.2"
     x="226.9061">...</text>
  <path
     style="fill:none;stroke:#000000"
     inkscape:connector-curvature="0"
     id="path940"
     d="m 379.4084,101.7935 c -4.7265,2.3294 -9.7426,4.6859 -14.5023,6.7065 -44.2516,18.786 -57.7485,17.214 -102,36 -1.7849,0.7577 -3.6059,1.5627 -5.4341,2.3958" />
  <polygon
     transform="translate(0.10350472,324.5)"
     style="fill:#000000;stroke:#000000"
     id="polygon942"
     points="258.8344,-174.4258 248.3002,-173.2935 255.8291,-180.7479 " />
  <polygon
     transform="translate(0.10350472,324.5)"
     style="fill:#bfbfbf;stroke:#000000"
     id="polygon947"
     points="373.8026,-144 427.8026,-144 427.8026,-180 373.8026,-180 " />
  <text
     style="font-size:14px;font-family:'Latin Modern Sans';text-anchor:middle;fill:#000000"
     id="text949"
     font-size="14.00"
     y="166.2"
     x="400.90613">DATA</text>
  <path
     style="fill:none;stroke:#000000"
     inkscape:connector-curvature="0"
     id="path954"
     d="m 400.9061,108.6686 c 0,7.7004 0,16.8571 0,25.4148" />
  <polygon
     transform="translate(0.10350472,324.5)"
     style="fill:#000000;stroke:#000000"
     id="polygon956"
     points="404.3027,-190.4132 400.8026,-180.4133 397.3027,-190.4133 " />
  <polygon
     transform="translate(0.10350472,324.5)"
     style="fill:#bfbfbf;stroke:#000000"
     id="polygon961"
     points="446.3026,-144 533.3026,-144 533.3026,-180 446.3026,-180 " />
  <text
     style="font-size:14px;font-family:'Latin Modern Sans';text-anchor:middle;fill:#000000"
     id="text963"
     font-size="14.00"
     y="166.2"
     x="489.90613">COMMENT</text>
  <path
     style="fill:none;stroke:#000000"
     inkscape:connector-curvature="0"
     id="path968"
     d="m 418.4896,104.7249 c 11.7726,9.5239 27.5712,22.3047 41.3157,33.4239" />
  <polygon
     transform="translate(0.10350472,324.5)"
     style="fill:#000000;stroke:#000000"
     id="polygon970"
     points="461.9378,-189.0442 467.511,-180.0336 457.5352,-183.6021 " />
  <polygon
     transform="translate(0.10350472,324.5)"
     style="fill:#bfbfbf;stroke:#000000"
     id="polygon975"
     points="551.3026,-144 626.3026,-144 626.3026,-180 551.3026,-180 " />
  <text
     style="font-size:14px;font-family:'Latin Modern Sans';text-anchor:middle;fill:#000000"
     id="text977"
     font-size="14.00"
     y="166.2"
     x="588.90613">HISTORY</text>
  <path
     style="fill:none;stroke:#000000"
     inkscape:connector-curvature="0"
     id="path982"
     d="m 424.5504,99.4123 c 26.4424,9.984 70.778,26.7752 117.3681,44.7207" />
  <polygon
     transform="translate(0.10350472,324.5)"
     style="fill:#000000;stroke:#000000"
     id="polygon984"
     points="543.0873,-183.6277 551.1585,-176.7642 540.5688,-177.0964 " />
  <polygon
     transform="translate(0.10350472,324.5)"
     style="fill:#bfbfbf;stroke:#000000"
     id="polygon989"
     points="665.8026,-72 723.8026,-72 723.8026,-108 665.8026,-108 " />
  <text
     style="font-size:14px;font-family:'Latin Modern Sans';text-anchor:middle;fill:#000000"
     id="text991"
     font-size="14.00"
     y="238.20001"
     x="694.90613">ZYXW</text>
  <path
     style="fill:none;stroke:#000000"
     inkscape:connector-curvature="0"
     id="path996"
     d="m 703.1303,180.6686 c -1.1764,7.7004 -2.5754,16.8571 -3.8828,25.4148" />
  <polygon
     transform="translate(0.10350472,324.5)"
     style="fill:#000000;stroke:#000000"
     id="polygon998"
     points="702.5859,-117.7699 697.6157,-108.4133 695.6662,-118.8272 " />
  <ellipse
     style="fill:#abd7e6;stroke:#000000"
     id="ellipse1003"
     ry="18"
     rx="35.194"
     cy="234.5"
     cx="776.90613" />
  <text
     style="font-size:14px;font-family:'Latin Modern Sans';text-anchor:middle;fill:#000000"
     id="text1005"
     font-size="14.00"
     y="238.20001"
     x="776.90613">DATA</text>
  <path
     style="fill:none;stroke:#000000"
     inkscape:connector-curvature="0"
     id="path1010"
     d="m 836.8152,179.1992 c -10.4577,9.6534 -23.7633,21.9354 -35.1775,32.4716" />
  <polygon
     transform="translate(0.10350472,324.5)"
     style="fill:#000000;stroke:#000000"
     id="polygon1012"
     points="803.7145,-110.0786 793.9924,-105.8675 798.9665,-115.2222 " />
  <ellipse
     style="fill:#abd7e6;stroke:#000000"
     id="ellipse1017"
     ry="18"
     rx="37.894299"
     cy="234.5"
     cx="867.90613" />
  <text
     style="font-size:14px;font-family:'Latin Modern Sans';text-anchor:middle;fill:#000000"
     id="text1019"
     font-size="14.00"
     y="238.20001"
     x="867.90613">ZYXW</text>
  <path
     style="fill:none;stroke:#000000"
     inkscape:connector-curvature="0"
     id="path1024"
     d="m 858.1865,180.6686 c 1.3904,7.7004 3.0436,16.8571 4.5888,25.4148" />
  <polygon
     transform="translate(0.10350472,324.5)"
     style="fill:#000000;stroke:#000000"
     id="polygon1026"
     points="866.1453,-118.8761 864.4779,-108.4133 859.2567,-117.6322 " />
  <ellipse
     style="fill:#abd7e6;stroke:#000000"
     id="ellipse1031"
     ry="18"
     rx="46.592602"
     cy="234.5"
     cx="969.90613" />
  <text
     style="font-size:14px;font-family:'Latin Modern Sans';text-anchor:middle;fill:#000000"
     id="text1033"
     font-size="14.00"
     y="238.20001"
     x="969.90613">MEAN_Z</text>
  <path
     style="fill:none;stroke:#000000"
     inkscape:connector-curvature="0"
     id="path1038"
     d="m 879.5765,177.9458 c 16.6747,10.4398 38.8888,24.3478 57.1148,35.7589" />
  <polygon
     transform="translate(0.10350472,324.5)"
     style="fill:#000000;stroke:#000000"
     id="polygon1040"
     points="938.5545,-113.6935 945.173,-105.4203 934.8398,-107.7604 " />
  <polygon
     transform="translate(0.10350472,324.5)"
     style="fill:#bfbfbf;stroke:#000000"
     id="polygon1045"
     points="719.8026,0 813.8026,0 813.8026,-36 719.8026,-36 " />
  <text
     style="font-size:14px;font-family:'Latin Modern Sans';text-anchor:middle;fill:#000000"
     id="text1047"
     font-size="14.00"
     y="310.20001"
     x="766.90613">DATA_XY_2</text>
  <path
     style="fill:none;stroke:#000000"
     inkscape:connector-curvature="0"
     id="path1052"
     d="m 774.3826,252.6686 c -1.0695,7.7004 -2.3412,16.8571 -3.5298,25.4148" />
  <polygon
     transform="translate(0.10350472,324.5)"
     style="fill:#000000;stroke:#000000"
     id="polygon1054"
     points="774.2025,-45.8367 769.36,-36.4133 767.269,-46.7997 " />
  <polygon
     transform="translate(0.10350472,324.5)"
     style="fill:#bfbfbf;stroke:#000000"
     id="polygon1059"
     points="831.8026,0 925.8026,0 925.8026,-36 831.8026,-36 " />
  <text
     style="font-size:14px;font-family:'Latin Modern Sans';text-anchor:middle;fill:#000000"
     id="text1061"
     font-size="14.00"
     y="310.20001"
     x="878.90613">DATA_XY_4</text>
  <path
     style="fill:none;stroke:#000000"
     inkscape:connector-curvature="0"
     id="path1066"
     d="m 797.5473,249.0703 c 13.5562,9.5691 31.6117,22.3142 47.2693,33.3666" />
  <polygon
     transform="translate(0.10350472,324.5)"
     style="fill:#000000;stroke:#000000"
     id="polygon1068"
     points="846.97,-44.7542 853.1213,-36.128 842.9332,-39.0354 " />
  <ellipse
     style="fill:#abd7e6;stroke:#000000"
     id="ellipse1073"
     ry="18"
     rx="27"
     cy="234.5"
     cx="313.90613" />
  <text
     style="font-size:14px;font-family:'Latin Modern Sans';text-anchor:middle;fill:#000000"
     id="text1075"
     font-size="14.00"
     y="238.20001"
     x="313.90613">XY</text>
  <path
     style="fill:none;stroke:#000000"
     inkscape:connector-curvature="0"
     id="path1080"
     d="m 313.9061,180.6686 c 0,7.7004 0,16.8571 0,25.4148" />
  <polygon
     transform="translate(0.10350472,324.5)"
     style="fill:#000000;stroke:#000000"
     id="polygon1082"
     points="317.3027,-118.4132 313.8026,-108.4133 310.3027,-118.4133 " />
  <ellipse
     style="fill:#abd7e6;stroke:#000000"
     id="ellipse1087"
     ry="18"
     rx="27"
     cy="234.5"
     cx="385.90613" />
  <text
     style="font-size:14px;font-family:'Latin Modern Sans';text-anchor:middle;fill:#000000"
     id="text1089"
     font-size="14.00"
     y="238.20001"
     x="385.90613">Z</text>
  <path
     style="fill:none;stroke:#000000"
     inkscape:connector-curvature="0"
     id="path1094"
     d="m 330.6053,179.1992 c 9.7611,9.7611 22.2099,22.2099 32.8238,32.8238" />
  <polygon
     transform="translate(0.10350472,324.5)"
     style="fill:#000000;stroke:#000000"
     id="polygon1096"
     points="366.0689,-114.6834 370.6651,-105.1374 361.1191,-109.7337 " />
  <ellipse
     style="fill:#abd7e6;stroke:#000000"
     id="ellipse1101"
     ry="18"
     rx="28.695299"
     cy="234.5"
     cx="239.9061" />
  <text
     style="font-size:14px;font-family:'Latin Modern Sans';text-anchor:middle;fill:#000000"
     id="text1103"
     font-size="14.00"
     y="238.20001"
     x="239.9061">XYZ</text>
  <path
     style="fill:none;stroke:#000000"
     inkscape:connector-curvature="0"
     id="path1108"
     d="m 296.743,179.1992 c -10.1296,9.8559 -23.0756,22.4519 -34.0528,33.1324" />
  <polygon
     transform="translate(0.10350472,324.5)"
     style="fill:#000000;stroke:#000000"
     id="polygon1110"
     points="264.9685,-109.6025 255.3605,-105.1374 260.087,-114.6196 " />
  <polygon
     transform="translate(0.10350472,324.5)"
     style="fill:#bfbfbf;stroke:#000000"
     id="polygon1115"
     points="44.3026,0 101.3026,0 101.3026,-36 44.3026,-36 " />
  <text
     style="font-size:14px;font-family:'Latin Modern Sans';text-anchor:middle;fill:#000000"
     id="text1117"
     font-size="14.00"
     y="310.20001"
     x="72.906105">MEAN</text>
  <path
     style="fill:none;stroke:#000000"
     inkscape:connector-curvature="0"
     id="path1122"
     d="m 292.9717,246.0709 c -4.8472,2.3664 -10.0554,4.6682 -15.0656,6.4291 -68.6936,24.1437 -93.0981,12.6365 -166.5395,36.3021" />
  <polygon
     transform="translate(0.10350472,324.5)"
     style="fill:#000000;stroke:#000000"
     id="polygon1124"
     points="112.1571,-32.3066 101.5635,-32.4628 109.9423,-38.947 " />
  <polygon
     transform="translate(0.10350472,324.5)"
     style="fill:#bfbfbf;stroke:#000000"
     id="polygon1129"
     points="119.8026,0 173.8026,0 173.8026,-36 119.8026,-36 " />
  <text
     style="font-size:14px;font-family:'Latin Modern Sans';text-anchor:middle;fill:#000000"
     id="text1131"
     font-size="14.00"
     y="310.20001"
     x="146.9061">MAX</text>
  <path
     style="fill:none;stroke:#000000"
     inkscape:connector-curvature="0"
     id="path1136"
     d="m 292.3728,245.711 c -4.7243,2.3344 -9.7305,4.7139 -14.4667,6.789 -38.6914,16.9518 -51.9386,17.835 -94.4074,35.9505" />
  <polygon
     transform="translate(0.10350472,324.5)"
     style="fill:#000000;stroke:#000000"
     id="polygon1138"
     points="184.7504,-32.8223 174.1838,-32.0491 181.962,-39.2429 " />
  <polygon
     transform="translate(0.10350472,324.5)"
     style="fill:#bfbfbf;stroke:#000000"
     id="polygon1143"
     points="191.8026,0 245.8026,0 245.8026,-36 191.8026,-36 " />
  <text
     style="font-size:14px;font-family:'Latin Modern Sans';text-anchor:middle;fill:#000000"
     id="text1145"
     font-size="14.00"
     y="310.20001"
     x="218.9061">MIN</text>
  <path
     style="fill:none;stroke:#000000"
     inkscape:connector-curvature="0"
     id="path1150"
     d="m 296.0373,248.0426 c -12.6981,9.6238 -30.1,22.8127 -45.1612,34.2275" />
  <polygon
     transform="translate(0.10350472,324.5)"
     style="fill:#000000;stroke:#000000"
     id="polygon1152"
     points="252.7746,-39.3556 242.6908,-36.1047 248.5464,-44.9344 " />
  <polygon
     transform="translate(0.10350472,324.5)"
     style="fill:#bfbfbf;stroke:#000000"
     id="polygon1157"
     points="264.3026,0 363.3026,0 363.3026,-36 264.3026,-36 " />
  <text
     style="font-size:14px;font-family:'Latin Modern Sans';text-anchor:middle;fill:#000000"
     id="text1159"
     font-size="14.00"
     y="310.20001"
     x="313.90613">NAN_COUNT</text>
  <path
     style="fill:none;stroke:#000000"
     inkscape:connector-curvature="0"
     id="path1164"
     d="m 313.9061,252.6686 c 0,7.7004 0,16.8571 0,25.4148" />
  <polygon
     transform="translate(0.10350472,324.5)"
     style="fill:#000000;stroke:#000000"
     id="polygon1166"
     points="317.3027,-46.4132 313.8026,-36.4133 310.3027,-46.4133 " />
  <polygon
     transform="translate(0.10350472,324.5)"
     style="fill:#bfbfbf;stroke:#000000"
     id="polygon1171"
     points="381.8026,0 479.8026,0 479.8026,-36 381.8026,-36 " />
  <text
     style="font-size:14px;font-family:'Latin Modern Sans';text-anchor:middle;fill:#000000"
     id="text1173"
     font-size="14.00"
     y="310.20001"
     x="430.90613">HISTOGRAM</text>
  <path
     style="fill:none;stroke:#000000"
     inkscape:connector-curvature="0"
     id="path1178"
     d="m 333.7535,246.7138 c 16.0567,9.8811 39.1453,24.0894 58.7856,36.1758" />
  <polygon
     transform="translate(0.10350472,324.5)"
     style="fill:#000000;stroke:#000000"
     id="polygon1180"
     points="394.4971,-44.4515 401.1793,-36.2297 390.8283,-38.4899 " />
  <polygon
     transform="translate(0.10350472,324.5)"
     style="fill:#bfbfbf;stroke:#000000"
     id="polygon1185"
     points="497.8026,0 577.8026,0 577.8026,-36 497.8026,-36 " />
  <text
     style="font-size:14px;font-family:'Latin Modern Sans';text-anchor:middle;fill:#000000"
     id="text1187"
     font-size="14.00"
     y="310.20001"
     x="537.90613">HIST_MIN</text>
  <path
     style="fill:none;stroke:#000000"
     inkscape:connector-curvature="0"
     id="path1192"
     d="m 334.8957,245.9188 c 4.8443,2.3742 10.0374,4.7177 15.0104,6.5812 56.8402,21.2999 76.1973,17.4373 138.1158,35.9124" />
  <polygon
     transform="translate(0.10350472,324.5)"
     style="fill:#000000;stroke:#000000"
     id="polygon1194"
     points="489.2656,-39.3355 497.8014,-33.0593 487.2148,-32.6426 " />
  <polygon
     transform="translate(0.10350472,324.5)"
     style="fill:#bfbfbf;stroke:#000000"
     id="polygon1199"
     points="595.8026,0 681.8026,0 681.8026,-36 595.8026,-36 " />
  <text
     style="font-size:14px;font-family:'Latin Modern Sans';text-anchor:middle;fill:#000000"
     id="text1201"
     font-size="14.00"
     y="310.20001"
     x="638.90613">HIST_MAX</text>
  <path
     style="fill:none;stroke:#000000"
     inkscape:connector-curvature="0"
     id="path1206"
     d="m 334.7636,246.3009 c 4.8511,2.3544 10.0804,4.5932 15.1425,6.1991 98.4794,31.2416 131.561,11.7357 235.792,35.972" />
  <polygon
     transform="translate(0.10350472,324.5)"
     style="fill:#000000;stroke:#000000"
     id="polygon1208"
     points="586.6653,-39.3704 595.5686,-33.6274 585.0272,-32.5647 " />
  <g
     id="g1848"
     transform="translate(356.69611,-11.5)">
    <polygon
       points="388.8026,-280 388.8026,-355 655.8026,-355 655.8026,-280 "
       id="polygon821"
       style="fill:none;stroke:#000000"
       transform="translate(4,367)" />
    <text
       x="526.30261"
       y="27.200012"
       font-size="14.00"
       id="text823"
       style="font-size:14px;font-family:'Latin Modern Sans';text-anchor:middle;fill:#000000">Legend</text>
    <ellipse
       cx="618.80261"
       cy="61"
       rx="33.2948"
       ry="18"
       id="ellipse1213"
       style="fill:#abd7e6;stroke:#000000" />
    <text
       x="618.80261"
       y="64.700012"
       font-size="14.00"
       id="text1215"
       style="font-size:14px;font-family:'Latin Modern Sans';text-anchor:middle;fill:#000000">Group</text>
    <polygon
       points="563.7577,-298.5442 563.7577,-313.4558 536.8378,-324 498.7673,-324 471.8474,-313.4558 471.8474,-298.5442 498.7673,-288 536.8378,-288 "
       id="polygon1220"
       style="fill:#ffbfca;stroke:#000000"
       transform="translate(4,367)" />
    <text
       x="521.80261"
       y="64.700012"
       font-size="14.00"
       id="text1222"
       style="font-size:14px;font-family:'Latin Modern Sans';text-anchor:middle;fill:#000000">Attribute</text>
    <polygon
       points="454.3026,-324 397.3026,-324 397.3026,-288 454.3026,-288 "
       id="polygon1227"
       style="fill:#bfbfbf;stroke:#000000"
       transform="translate(4,367)" />
    <text
       x="429.80261"
       y="64.700012"
       font-size="14.00"
       id="text1229"
       style="font-size:14px;font-family:'Latin Modern Sans';text-anchor:middle;fill:#000000">Dataset</text>
  </g>
</svg>
