<?xml version="1.0" encoding="UTF-8" standalone="no"?>
<svg
   xmlns:dc="http://purl.org/dc/elements/1.1/"
   xmlns:cc="http://creativecommons.org/ns#"
   xmlns:rdf="http://www.w3.org/1999/02/22-rdf-syntax-ns#"
   xmlns:svg="http://www.w3.org/2000/svg"
   xmlns="http://www.w3.org/2000/svg"
   xmlns:sodipodi="http://sodipodi.sourceforge.net/DTD/sodipodi-0.dtd"
   xmlns:inkscape="http://www.inkscape.org/namespaces/inkscape"
   inkscape:version="1.0alpha2 (1:0.92.0+devel+201907090511+74dcc2b)"
   sodipodi:docname="schema.svg"
   id="svg404"
   version="1.1"
   viewBox="0.00 0.00 893.06 587.43"
   height="587pt"
   width="893pt">
  <metadata
     id="metadata410">
    <rdf:RDF>
      <cc:Work
         rdf:about="">
        <dc:format>image/svg+xml</dc:format>
        <dc:type
           rdf:resource="http://purl.org/dc/dcmitype/StillImage" />
      </cc:Work>
    </rdf:RDF>
  </metadata>
  <defs
     id="defs408" />
  <sodipodi:namedview
     inkscape:current-layer="svg404"
     inkscape:window-maximized="1"
     inkscape:window-y="0"
     inkscape:window-x="0"
     inkscape:cy="391.33333"
     inkscape:cx="595.33333"
     inkscape:zoom="0.74806356"
     showgrid="false"
     id="namedview406"
     inkscape:window-height="995"
     inkscape:window-width="1920"
     inkscape:pageshadow="2"
     inkscape:pageopacity="0"
     guidetolerance="10"
     gridtolerance="10"
     objecttolerance="10"
     borderopacity="1"
     inkscape:document-rotation="0"
     bordercolor="#666666"
     pagecolor="#ffffff" />
  <polygon
     transform="translate(4,583.4303)"
     fill="#ffffff"
     stroke="transparent"
     points="889.0573,-583.4303 889.0573,4 -4,4 -4,-583.4303 "
     id="polygon4"
     style="opacity:1;stop-opacity:1" />
  <g
     transform="translate(4,583.4303)"
     id="node1"
     class="node"
     style="opacity:1;stop-opacity:1">
    <title
       id="title11">file</title>
    <ellipse
       fill="#abd7e6"
       stroke="#000000"
       cx="88.7099"
       cy="-323"
       rx="27"
       ry="19.6"
       id="ellipse13" />
    <text
       text-anchor="middle"
       x="88.7099"
       y="-318.60001"
       font-family="DejaVuSans"
       font-size="18.00"
       fill="#000000"
       id="text15">/</text>
  </g>
  <g
     transform="translate(4,583.4303)"
     id="node2"
     class="node"
     style="opacity:1;stop-opacity:1">
    <title
       id="title18">0</title>
    <ellipse
       fill="#abd7e6"
       stroke="#000000"
       cx="271.66031"
       cy="-294"
       rx="27"
       ry="19.6"
       id="ellipse20" />
    <text
       text-anchor="middle"
       x="271.66031"
       y="-289.60001"
       font-family="DejaVuSans"
       font-size="18.00"
       fill="#000000"
       id="text22">0</text>
  </g>
  <g
     transform="translate(4,583.4303)"
     id="edge2"
     class="edge"
     style="opacity:1;stop-opacity:1">
    <title
       id="title25">file-&gt;0</title>
    <path
       fill="none"
       stroke="#000000"
       d="m 115.3124,-318.7832 c 31.5698,5.0043 84.3786,13.3751 119.7767,18.9862"
       id="path27"
       inkscape:connector-curvature="0" />
    <polygon
       fill="#000000"
       stroke="#000000"
       points="234.6009,-296.3308 235.6969,-303.2444 245.0256,-298.2219 "
       id="polygon29" />
  </g>
  <g
     transform="translate(4,583.4303)"
     id="node11"
     class="node"
     style="opacity:1;stop-opacity:1">
    <title
       id="title32">VERSION</title>
    <polygon
       fill="#ffbfca"
       stroke="#000000"
       points="302.5117,-374.3608 240.8089,-374.3608 197.1783,-361.8479 197.1783,-344.1521 240.8089,-331.6392 302.5117,-331.6392 346.1422,-344.1521 346.1422,-361.8479 "
       id="polygon34" />
    <text
       text-anchor="middle"
       x="271.66031"
       y="-348.60001"
       font-family="DejaVuSans"
       font-size="18.00"
       fill="#000000"
       id="text36">VERSION</text>
  </g>
  <g
     transform="translate(4,583.4303)"
     id="edge1"
     class="edge"
     style="opacity:1;stop-opacity:1">
    <title
       id="title39">file-&gt;VERSION</title>
    <path
       fill="none"
       stroke="#000000"
       d="m 115.3124,-327.3623 c 20.833,-3.4161 50.9149,-8.3489 79.1391,-12.9771"
       id="path41"
       inkscape:connector-curvature="0" />
    <polygon
       fill="#000000"
       stroke="#000000"
       points="195.0372,-336.8886 193.9044,-343.7963 204.339,-341.9607 "
       id="polygon43" />
  </g>
  <g
     transform="translate(4,583.4303)"
     id="node3"
     class="node"
     style="opacity:1;stop-opacity:1">
    <title
       id="title46">PermutedData</title>
    <ellipse
       fill="#abd7e6"
       stroke="#000000"
       cx="485.13849"
       cy="-103"
       rx="103.4757"
       ry="19.6"
       id="ellipse48" />
    <text
       text-anchor="middle"
       x="485.13849"
       y="-98.599998"
       font-family="DejaVuSans"
       font-size="18.00"
       fill="#000000"
       id="text50">PermutedData</text>
  </g>
  <g
     transform="translate(4,583.4303)"
     id="edge21"
     class="edge"
     style="opacity:1;stop-opacity:1">
    <title
       id="title53">0-&gt;PermutedData</title>
    <path
       fill="none"
       stroke="#000000"
       d="m 279.4012,-274.7751 c 14.7185,34.0772 50.0274,105.0316 102.4997,142.7751 6.0264,4.3348 12.6801,8.0228 19.6196,11.1603"
       id="path55"
       inkscape:connector-curvature="0" />
    <polygon
       fill="#000000"
       stroke="#000000"
       points="400.5485,-117.4552 403.2081,-123.9303 411.1284,-116.8934 "
       id="polygon57" />
  </g>
  <g
     transform="translate(4,583.4303)"
     id="node4"
     class="node"
     style="opacity:1;stop-opacity:1">
    <title
       id="title60">MipMaps</title>
    <ellipse
       fill="#abd7e6"
       stroke="#000000"
       cx="485.13849"
       cy="-45"
       rx="68.678802"
       ry="19.6"
       id="ellipse62" />
    <text
       text-anchor="middle"
       x="485.13849"
       y="-40.599998"
       font-family="DejaVuSans"
       font-size="18.00"
       fill="#000000"
       id="text64">MipMaps</text>
  </g>
  <g
     transform="translate(4,583.4303)"
     id="edge23"
     class="edge"
     style="opacity:1;stop-opacity:1">
    <title
       id="title67">0-&gt;MipMaps</title>
    <path
       fill="none"
       stroke="#000000"
       d="m 275.8711,-274.1859 c 10.2187,43.1479 40.4652,146.0663 106.0298,200.1859 9.1977,7.5922 20.2571,13.2006 31.6703,17.3427"
       id="path69"
       inkscape:connector-curvature="0" />
    <polygon
       fill="#000000"
       stroke="#000000"
       points="412.616,-53.2874 414.7883,-59.9419 423.2085,-53.5115 "
       id="polygon71" />
  </g>
  <g
     transform="translate(4,583.4303)"
     id="node6"
     class="node"
     style="opacity:1;stop-opacity:1">
    <title
       id="title74">Statistics</title>
    <ellipse
       fill="#abd7e6"
       stroke="#000000"
       cx="485.13849"
       cy="-377"
       rx="70.007103"
       ry="19.6"
       id="ellipse76" />
    <text
       text-anchor="middle"
       x="485.13849"
       y="-372.60001"
       font-family="DejaVuSans"
       font-size="18.00"
       fill="#000000"
       id="text78">Statistics</text>
  </g>
  <g
     transform="translate(4,583.4303)"
     id="edge6"
     class="edge"
     style="opacity:1;stop-opacity:1">
    <title
       id="title81">0-&gt;Statistics</title>
    <path
       fill="none"
       stroke="#000000"
       d="m 296.3739,-302.0112 c 14.7557,-5.1816 33.6524,-12.5278 49.527,-20.9888 17.1903,-9.1623 18.3792,-16.6955 36,-25 11.8093,-5.5656 24.8953,-10.2581 37.6725,-14.1383"
       id="path83"
       inkscape:connector-curvature="0" />
    <polygon
       fill="#000000"
       stroke="#000000"
       points="420.6291,-358.8001 418.6785,-365.5229 429.2577,-364.948 "
       id="polygon85" />
  </g>
  <g
     transform="translate(4,583.4303)"
     id="node12"
     class="node"
     style="opacity:1;stop-opacity:1">
    <title
       id="title88">BUNIT</title>
    <polygon
       fill="#ffbfca"
       stroke="#000000"
       points="508.0085,-579.3608 462.2685,-579.3608 429.9254,-566.8479 429.9254,-549.1521 462.2685,-536.6392 508.0085,-536.6392 540.3515,-549.1521 540.3515,-566.8479 "
       id="polygon90" />
    <text
       text-anchor="middle"
       x="485.13849"
       y="-553.59998"
       font-family="DejaVuSans"
       font-size="18.00"
       fill="#000000"
       id="text92">BUNIT</text>
  </g>
  <g
     transform="translate(4,583.4303)"
     id="edge3"
     class="edge"
     style="opacity:1;stop-opacity:1">
    <title
       id="title95">0-&gt;BUNIT</title>
    <path
       fill="none"
       stroke="#000000"
       d="m 298.5277,-297.7928 c 16.1249,-3.7014 35.7077,-10.9729 47.3732,-25.2072 58.3581,-71.2093 -25.1826,-135.2022 36,-204 9.9527,-11.1915 23.7722,-18.4153 38.0682,-23.0584"
       id="path97"
       inkscape:connector-curvature="0" />
    <polygon
       fill="#000000"
       stroke="#000000"
       points="421.2365,-546.7798 419.325,-553.5138 429.9007,-552.8776 "
       id="polygon99" />
  </g>
  <g
     transform="translate(4,583.4303)"
     id="node13"
     class="node"
     style="opacity:1;stop-opacity:1">
    <title
       id="title102">NAXIS</title>
    <polygon
       fill="#ffbfca"
       stroke="#000000"
       points="507.5816,-518.3608 462.6953,-518.3608 430.9559,-505.8479 430.9559,-488.1521 462.6953,-475.6392 507.5816,-475.6392 539.321,-488.1521 539.321,-505.8479 "
       id="polygon104" />
    <text
       text-anchor="middle"
       x="485.13849"
       y="-492.60001"
       font-family="DejaVuSans"
       font-size="18.00"
       fill="#000000"
       id="text106">NAXIS</text>
  </g>
  <g
     transform="translate(4,583.4303)"
     id="edge4"
     class="edge"
     style="opacity:1;stop-opacity:1">
    <title
       id="title109">0-&gt;NAXIS</title>
    <path
       fill="none"
       stroke="#000000"
       d="m 298.1784,-298.0898 c 15.9895,-3.8165 35.5526,-11.1047 47.7225,-24.9102 43.3388,-49.1636 -9.2864,-95.6243 36,-143 10.4013,-10.8813 24.4587,-17.9851 38.8476,-22.611"
       id="path111"
       inkscape:connector-curvature="0" />
    <polygon
       fill="#000000"
       stroke="#000000"
       points="422.0532,-485.3427 420.147,-492.0782 430.7222,-491.4337 "
       id="polygon113" />
  </g>
  <g
     transform="translate(4,583.4303)"
     id="node14"
     class="node"
     style="opacity:1;stop-opacity:1">
    <title
       id="title116">other_attrs</title>
    <polygon
       fill="#ffbfca"
       stroke="#000000"
       points="496.3222,-457.3608 473.9547,-457.3608 458.1385,-444.8479 458.1385,-427.1521 473.9547,-414.6392 496.3222,-414.6392 512.1385,-427.1521 512.1385,-444.8479 "
       id="polygon118" />
    <text
       text-anchor="middle"
       x="485.13849"
       y="-431.60001"
       font-family="DejaVuSans"
       font-size="18.00"
       fill="#000000"
       id="text120">...</text>
  </g>
  <g
     transform="translate(4,583.4303)"
     id="edge5"
     class="edge"
     style="opacity:1;stop-opacity:1">
    <title
       id="title123">0-&gt;other_attrs</title>
    <path
       fill="none"
       stroke="#000000"
       d="m 298.1405,-298.9928 c 15.5742,-4.1288 34.7086,-11.4278 47.7604,-24.0072 28.9513,-27.9036 5.8282,-56.4208 36,-83 18.1741,-16.0101 44.4497,-23.4976 65.9439,-26.9889"
       id="path125"
       inkscape:connector-curvature="0" />
    <polygon
       fill="#000000"
       stroke="#000000"
       points="448.5365,-429.5515 447.5678,-436.4841 457.9559,-434.4017 "
       id="polygon127" />
  </g>
  <g
     transform="translate(4,583.4303)"
     id="node16"
     class="node"
     style="opacity:1;stop-opacity:1">
    <title
       id="title130">DATA</title>
    <polygon
       fill="#bfbfbf"
       stroke="#000000"
       points="454.1385,-303 516.1385,-303 516.1385,-339 454.1385,-339 "
       id="polygon132" />
    <text
       text-anchor="middle"
       x="485.13849"
       y="-316.60001"
       font-family="DejaVuSans"
       font-size="18.00"
       fill="#000000"
       id="text134">DATA</text>
  </g>
  <g
     transform="translate(4,583.4303)"
     id="edge17"
     class="edge"
     style="opacity:1;stop-opacity:1">
    <title
       id="title137">0-&gt;DATA</title>
    <path
       fill="none"
       stroke="#000000"
       d="m 298.6974,-297.4196 c 36.5882,-4.6275 102.2045,-12.9264 145.0275,-18.3426"
       id="path139"
       inkscape:connector-curvature="0" />
    <polygon
       fill="#000000"
       stroke="#000000"
       points="444.3418,-312.3122 443.4634,-319.2569 453.8236,-317.0394 "
       id="polygon141" />
  </g>
  <g
     transform="translate(4,583.4303)"
     id="node17"
     class="node"
     style="opacity:1;stop-opacity:1">
    <title
       id="title144">COMMENT</title>
    <polygon
       fill="#bfbfbf"
       stroke="#000000"
       points="429.6385,-249 540.6385,-249 540.6385,-285 429.6385,-285 "
       id="polygon146" />
    <text
       text-anchor="middle"
       x="485.13849"
       y="-262.60001"
       font-family="DejaVuSans"
       font-size="18.00"
       fill="#000000"
       id="text148">COMMENT</text>
  </g>
  <g
     transform="translate(4,583.4303)"
     id="edge18"
     class="edge"
     style="opacity:1;stop-opacity:1">
    <title
       id="title151">0-&gt;COMMENT</title>
    <path
       fill="none"
       stroke="#000000"
       d="m 298.6974,-290.5804 c 30.2016,3.8198 80.1819,10.1411 120.795,15.2777"
       id="path153"
       inkscape:connector-curvature="0" />
    <polygon
       fill="#000000"
       stroke="#000000"
       points="419.238,-271.8071 420.1164,-278.7517 429.5982,-274.0245 "
       id="polygon155" />
  </g>
  <g
     transform="translate(4,583.4303)"
     id="node18"
     class="node"
     style="opacity:1;stop-opacity:1">
    <title
       id="title158">HISTORY</title>
    <polygon
       fill="#bfbfbf"
       stroke="#000000"
       points="437.6385,-195 532.6385,-195 532.6385,-231 437.6385,-231 "
       id="polygon160" />
    <text
       text-anchor="middle"
       x="485.13849"
       y="-208.60001"
       font-family="DejaVuSans"
       font-size="18.00"
       fill="#000000"
       id="text162">HISTORY</text>
  </g>
  <g
     transform="translate(4,583.4303)"
     id="edge19"
     class="edge"
     style="opacity:1;stop-opacity:1">
    <title
       id="title165">0-&gt;HISTORY</title>
    <path
       fill="none"
       stroke="#000000"
       d="m 293.0559,-281.923 c 21.8085,11.9245 56.88,30.05 88.845,41.923 14.6023,5.4238 30.7493,10.1975 45.8512,14.1629"
       id="path167"
       inkscape:connector-curvature="0" />
    <polygon
       fill="#000000"
       stroke="#000000"
       points="426.9435,-222.4313 428.6749,-229.2139 437.4985,-223.3492 "
       id="polygon169" />
  </g>
  <g
     transform="translate(4,583.4303)"
     id="node19"
     class="node"
     style="opacity:1;stop-opacity:1">
    <title
       id="title172">PERCENTILE_RANKS</title>
    <polygon
       fill="#bfbfbf"
       stroke="#000000"
       points="387.6385,-141 582.6385,-141 582.6385,-177 387.6385,-177 "
       id="polygon174" />
    <text
       text-anchor="middle"
       x="485.13849"
       y="-154.60001"
       font-family="DejaVuSans"
       font-size="18.00"
       fill="#000000"
       id="text176">PERCENTILE_RANKS</text>
  </g>
  <g
     transform="translate(4,583.4303)"
     id="edge20"
     class="edge"
     style="opacity:1;stop-opacity:1">
    <title
       id="title179">0-&gt;PERCENTILE_RANKS</title>
    <path
       fill="none"
       stroke="#000000"
       d="m 284.5699,-276.5787 c 18.7484,24.0392 55.8364,67.0696 97.331,90.5787 3.0751,1.7423 6.2653,3.3748 9.5363,4.9043"
       id="path181"
       inkscape:connector-curvature="0" />
    <polygon
       fill="#000000"
       stroke="#000000"
       points="390.2716,-177.7871 393.0365,-184.218 400.8409,-177.0526 "
       id="polygon183" />
  </g>
  <g
     transform="translate(4,583.4303)"
     id="node20"
     class="node"
     style="opacity:1;stop-opacity:1">
    <title
       id="title186">ZYXW</title>
    <polygon
       fill="#bfbfbf"
       stroke="#000000"
       points="633.2167,-85 703.2167,-85 703.2167,-121 633.2167,-121 "
       id="polygon188" />
    <text
       text-anchor="middle"
       x="668.21667"
       y="-98.599998"
       font-family="DejaVuSans"
       font-size="18.00"
       fill="#000000"
       id="text190">ZYXW</text>
  </g>
  <g
     transform="translate(4,583.4303)"
     id="edge22"
     class="edge"
     style="opacity:1;stop-opacity:1">
    <title
       id="title193">PermutedData-&gt;ZYXW</title>
    <path
       fill="none"
       stroke="#000000"
       d="m 588.4485,-103 c 12.0445,0 23.8126,0 34.4514,0"
       id="path195"
       inkscape:connector-curvature="0" />
    <polygon
       fill="#000000"
       stroke="#000000"
       points="623.1306,-99.5001 623.1306,-106.5001 633.1306,-103 "
       id="polygon197" />
  </g>
  <g
     transform="translate(4,583.4303)"
     id="node5"
     class="node"
     style="opacity:1;stop-opacity:1">
    <title
       id="title200">mmDATA</title>
    <ellipse
       fill="#abd7e6"
       stroke="#000000"
       cx="668.21667"
       cy="-45"
       rx="43.681801"
       ry="19.6"
       id="ellipse202" />
    <text
       text-anchor="middle"
       x="668.21667"
       y="-40.599998"
       font-family="DejaVuSans"
       font-size="18.00"
       fill="#000000"
       id="text204">DATA</text>
  </g>
  <g
     transform="translate(4,583.4303)"
     id="edge24"
     class="edge"
     style="opacity:1;stop-opacity:1">
    <title
       id="title207">MipMaps-&gt;mmDATA</title>
    <path
       fill="none"
       stroke="#000000"
       d="m 553.8309,-45 c 19.8614,0 41.2558,0 60.1078,0"
       id="path209"
       inkscape:connector-curvature="0" />
    <polygon
       fill="#000000"
       stroke="#000000"
       points="614.1246,-41.5001 614.1247,-48.5001 624.1246,-45 "
       id="polygon211" />
  </g>
  <g
     transform="translate(4,583.4303)"
     id="node21"
     class="node"
     style="opacity:1;stop-opacity:1">
    <title
       id="title214">DATA_XY_2</title>
    <polygon
       fill="#bfbfbf"
       stroke="#000000"
       points="759.0573,-54 874.0573,-54 874.0573,-90 759.0573,-90 "
       id="polygon216" />
    <text
       text-anchor="middle"
       x="816.55731"
       y="-67.599998"
       font-family="DejaVuSans"
       font-size="18.00"
       fill="#000000"
       id="text218">DATA_XY_2</text>
  </g>
  <g
     transform="translate(4,583.4303)"
     id="edge25"
     class="edge"
     style="opacity:1;stop-opacity:1">
    <title
       id="title221">mmDATA-&gt;DATA_XY_2</title>
    <path
       fill="none"
       stroke="#000000"
       d="m 709.1441,-52.4493 c 12.2325,-2.2265 25.9861,-4.7299 39.4638,-7.183"
       id="path223"
       inkscape:connector-curvature="0" />
    <polygon
       fill="#000000"
       stroke="#000000"
       points="749.6192,-56.2588 748.3657,-63.1456 758.8308,-61.493 "
       id="polygon225" />
  </g>
  <g
     transform="translate(4,583.4303)"
     id="node22"
     class="node"
     style="opacity:1;stop-opacity:1">
    <title
       id="title228">DATA_XY_4</title>
    <polygon
       fill="#bfbfbf"
       stroke="#000000"
       points="759.0573,0 874.0573,0 874.0573,-36 759.0573,-36 "
       id="polygon230" />
    <text
       text-anchor="middle"
       x="816.55731"
       y="-13.6"
       font-family="DejaVuSans"
       font-size="18.00"
       fill="#000000"
       id="text232">DATA_XY_4</text>
  </g>
  <g
     transform="translate(4,583.4303)"
     id="edge26"
     class="edge"
     style="opacity:1;stop-opacity:1">
    <title
       id="title235">mmDATA-&gt;DATA_XY_4</title>
    <path
       fill="none"
       stroke="#000000"
       d="m 709.1441,-37.5507 c 12.2325,2.2265 25.9861,4.7299 39.4638,7.183"
       id="path237"
       inkscape:connector-curvature="0" />
    <polygon
       fill="#000000"
       stroke="#000000"
       points="748.3657,-26.8544 749.6192,-33.7412 758.8308,-28.507 "
       id="polygon239" />
  </g>
  <g
     transform="translate(4,583.4303)"
     id="node7"
     class="node"
     style="opacity:1;stop-opacity:1">
    <title
       id="title242">XY</title>
    <ellipse
       fill="#abd7e6"
       stroke="#000000"
       cx="668.21667"
       cy="-377"
       rx="28.0702"
       ry="19.6"
       id="ellipse244" />
    <text
       text-anchor="middle"
       x="668.21667"
       y="-372.60001"
       font-family="DejaVuSans"
       font-size="18.00"
       fill="#000000"
       id="text246">XY</text>
  </g>
  <g
     transform="translate(4,583.4303)"
     id="edge8"
     class="edge"
     style="opacity:1;stop-opacity:1">
    <title
       id="title249">Statistics-&gt;XY</title>
    <path
       fill="none"
       stroke="#000000"
       d="m 555.3977,-377 c 25.1307,0 52.5267,0 74.0284,0"
       id="path251"
       inkscape:connector-curvature="0" />
    <polygon
       fill="#000000"
       stroke="#000000"
       points="629.4723,-373.5001 629.4723,-380.5001 639.4723,-377 "
       id="polygon253" />
  </g>
  <g
     transform="translate(4,583.4303)"
     id="node8"
     class="node"
     style="opacity:1;stop-opacity:1">
    <title
       id="title256">Z</title>
    <ellipse
       fill="#abd7e6"
       stroke="#000000"
       cx="668.21667"
       cy="-319"
       rx="27"
       ry="19.6"
       id="ellipse258" />
    <text
       text-anchor="middle"
       x="668.21667"
       y="-314.60001"
       font-family="DejaVuSans"
       font-size="18.00"
       fill="#000000"
       id="text260">Z</text>
  </g>
  <g
     transform="translate(4,583.4303)"
     id="edge16"
     class="edge"
     style="opacity:1;stop-opacity:1">
    <title
       id="title263">Statistics-&gt;Z</title>
    <path
       fill="none"
       stroke="#000000"
       d="m 536.2988,-363.4412 c 16.6826,4.6375 35.2403,10.0269 52.0773,15.4412 15.3992,4.952 32.2598,10.9844 46.5024,16.2622"
       id="path265"
       inkscape:connector-curvature="0" />
    <polygon
       fill="#000000"
       stroke="#000000"
       points="633.6778,-328.4501 636.1289,-335.007 644.2703,-328.227 "
       id="polygon267" />
  </g>
  <g
     transform="translate(4,583.4303)"
     id="node9"
     class="node"
     style="opacity:1;stop-opacity:1">
    <title
       id="title270">XYZ</title>
    <ellipse
       fill="#abd7e6"
       stroke="#000000"
       cx="668.21667"
       cy="-435"
       rx="36.540501"
       ry="19.6"
       id="ellipse272" />
    <text
       text-anchor="middle"
       x="668.21667"
       y="-430.60001"
       font-family="DejaVuSans"
       font-size="18.00"
       fill="#000000"
       id="text274">XYZ</text>
  </g>
  <g
     transform="translate(4,583.4303)"
     id="edge7"
     class="edge"
     style="opacity:1;stop-opacity:1">
    <title
       id="title277">Statistics-&gt;XYZ</title>
    <path
       fill="none"
       stroke="#000000"
       d="m 536.2988,-390.5588 c 16.6826,-4.6375 35.2403,-10.0269 52.0773,-15.4412 13.2012,-4.2451 27.4764,-9.2843 40.2555,-13.9614"
       id="path279"
       inkscape:connector-curvature="0" />
    <polygon
       fill="#000000"
       stroke="#000000"
       points="629.9023,-416.6996 627.4764,-423.2658 638.0696,-423.4483 "
       id="polygon281" />
  </g>
  <g
     transform="translate(4,583.4303)"
     id="node23"
     class="node"
     style="opacity:1;stop-opacity:1">
    <title
       id="title284">SUM</title>
    <polygon
       fill="#bfbfbf"
       stroke="#000000"
       points="788.0573,-521 845.0573,-521 845.0573,-557 788.0573,-557 "
       id="polygon286" />
    <text
       text-anchor="middle"
       x="816.55731"
       y="-534.59998"
       font-family="DejaVuSans"
       font-size="18.00"
       fill="#000000"
       id="text288">SUM</text>
  </g>
  <g
     transform="translate(4,583.4303)"
     id="edge9"
     class="edge"
     style="opacity:1;stop-opacity:1">
    <title
       id="title291">XY-&gt;SUM</title>
    <path
       fill="none"
       stroke="#000000"
       d="m 691.4613,-388.4112 c 7.4301,-4.5971 15.1347,-10.5067 20.596,-17.5888 30.3828,-39.3998 1.6742,-69.9834 36,-106 8.035,-8.4307 19.027,-14.2804 29.8537,-18.3183"
       id="path293"
       inkscape:connector-curvature="0" />
    <polygon
       fill="#000000"
       stroke="#000000"
       points="779.3092,-527.0936 777.1248,-533.744 787.7177,-533.5394 "
       id="polygon295" />
  </g>
  <g
     transform="translate(4,583.4303)"
     id="node24"
     class="node"
     style="opacity:1;stop-opacity:1">
    <title
       id="title298">SUM_SQ</title>
    <polygon
       fill="#bfbfbf"
       stroke="#000000"
       points="770.5573,-467 862.5573,-467 862.5573,-503 770.5573,-503 "
       id="polygon300" />
    <text
       text-anchor="middle"
       x="816.55731"
       y="-480.60001"
       font-family="DejaVuSans"
       font-size="18.00"
       fill="#000000"
       id="text302">SUM_SQ</text>
  </g>
  <g
     transform="translate(4,583.4303)"
     id="edge10"
     class="edge"
     style="opacity:1;stop-opacity:1">
    <title
       id="title305">XY-&gt;SUM_SQ</title>
    <path
       fill="none"
       stroke="#000000"
       d="m 690.3997,-389.3545 c 7.3449,-4.6727 15.2673,-10.3889 21.6576,-16.6455 20.0851,-19.665 13.9737,-34.5368 36,-52 4.0286,-3.194 8.482,-6.0508 13.1274,-8.5976"
       id="path307"
       inkscape:connector-curvature="0" />
    <polygon
       fill="#000000"
       stroke="#000000"
       points="762.8932,-463.5381 759.7802,-469.8078 770.2935,-471.1201 "
       id="polygon309" />
  </g>
  <g
     transform="translate(4,583.4303)"
     id="node25"
     class="node"
     style="opacity:1;stop-opacity:1">
    <title
       id="title312">MAX</title>
    <polygon
       fill="#bfbfbf"
       stroke="#000000"
       points="788.5573,-413 844.5573,-413 844.5573,-449 788.5573,-449 "
       id="polygon314" />
    <text
       text-anchor="middle"
       x="816.55731"
       y="-426.60001"
       font-family="DejaVuSans"
       font-size="18.00"
       fill="#000000"
       id="text316">MAX</text>
  </g>
  <g
     transform="translate(4,583.4303)"
     id="edge11"
     class="edge"
     style="opacity:1;stop-opacity:1">
    <title
       id="title319">XY-&gt;MAX</title>
    <path
       fill="none"
       stroke="#000000"
       d="m 693.3806,-386.1604 c 23.4847,-8.549 58.834,-21.4171 85.6493,-31.1786"
       id="path321"
       inkscape:connector-curvature="0" />
    <polygon
       fill="#000000"
       stroke="#000000"
       points="780.2858,-414.0714 777.8912,-420.6491 788.4853,-420.781 "
       id="polygon323" />
  </g>
  <g
     transform="translate(4,583.4303)"
     id="node26"
     class="node"
     style="opacity:1;stop-opacity:1">
    <title
       id="title326">MIN</title>
    <polygon
       fill="#bfbfbf"
       stroke="#000000"
       points="789.5573,-359 843.5573,-359 843.5573,-395 789.5573,-395 "
       id="polygon328" />
    <text
       text-anchor="middle"
       x="816.55731"
       y="-372.60001"
       font-family="DejaVuSans"
       font-size="18.00"
       fill="#000000"
       id="text330">MIN</text>
  </g>
  <g
     transform="translate(4,583.4303)"
     id="edge12"
     class="edge"
     style="opacity:1;stop-opacity:1">
    <title
       id="title333">XY-&gt;MIN</title>
    <path
       fill="none"
       stroke="#000000"
       d="m 696.8182,-377 c 23.5309,0 57.0524,0 82.6452,0"
       id="path335"
       inkscape:connector-curvature="0" />
    <polygon
       fill="#000000"
       stroke="#000000"
       points="779.5433,-373.5001 779.5434,-380.5001 789.5434,-377 "
       id="polygon337" />
  </g>
  <g
     transform="translate(4,583.4303)"
     id="node27"
     class="node"
     style="opacity:1;stop-opacity:1">
    <title
       id="title340">NAN_COUNT</title>
    <polygon
       fill="#bfbfbf"
       stroke="#000000"
       points="751.5573,-305 881.5573,-305 881.5573,-341 751.5573,-341 "
       id="polygon342" />
    <text
       text-anchor="middle"
       x="816.55731"
       y="-318.60001"
       font-family="DejaVuSans"
       font-size="18.00"
       fill="#000000"
       id="text344">NAN_COUNT</text>
  </g>
  <g
     transform="translate(4,583.4303)"
     id="edge13"
     class="edge"
     style="opacity:1;stop-opacity:1">
    <title
       id="title347">XY-&gt;NAN_COUNT</title>
    <path
       fill="none"
       stroke="#000000"
       d="m 693.3806,-367.8396 c 17.5758,6.398 41.7967,15.2151 64.1125,23.3386"
       id="path349"
       inkscape:connector-curvature="0" />
    <polygon
       fill="#000000"
       stroke="#000000"
       points="756.3215,-341.2028 758.716,-347.7806 766.9155,-341.071 "
       id="polygon351" />
  </g>
  <g
     transform="translate(4,583.4303)"
     id="node28"
     class="node"
     style="opacity:1;stop-opacity:1">
    <title
       id="title354">PERCENTILES</title>
    <polygon
       fill="#bfbfbf"
       stroke="#000000"
       points="748.0573,-251 885.0573,-251 885.0573,-287 748.0573,-287 "
       id="polygon356" />
    <text
       text-anchor="middle"
       x="816.55731"
       y="-264.60001"
       font-family="DejaVuSans"
       font-size="18.00"
       fill="#000000"
       id="text358">PERCENTILES</text>
  </g>
  <g
     transform="translate(4,583.4303)"
     id="edge14"
     class="edge"
     style="opacity:1;stop-opacity:1">
    <title
       id="title361">XY-&gt;PERCENTILES</title>
    <path
       fill="none"
       stroke="#000000"
       d="m 690.3997,-364.6455 c 7.3449,4.6727 15.2673,10.3889 21.6576,16.6455 20.0851,19.665 13.9737,34.5368 36,52 1.5776,1.2508 3.2204,2.4499 4.9143,3.5989"
       id="path363"
       inkscape:connector-curvature="0" />
    <polygon
       fill="#000000"
       stroke="#000000"
       points="751.4339,-289.241 755.0535,-295.2326 761.8031,-287.0659 "
       id="polygon365" />
  </g>
  <g
     transform="translate(4,583.4303)"
     id="node29"
     class="node"
     style="opacity:1;stop-opacity:1">
    <title
       id="title368">HISTOGRAM</title>
    <polygon
       fill="#bfbfbf"
       stroke="#000000"
       points="753.5573,-197 879.5573,-197 879.5573,-233 753.5573,-233 "
       id="polygon370" />
    <text
       text-anchor="middle"
       x="816.55731"
       y="-210.60001"
       font-family="DejaVuSans"
       font-size="18.00"
       fill="#000000"
       id="text372">HISTOGRAM</text>
  </g>
  <g
     transform="translate(4,583.4303)"
     id="edge15"
     class="edge"
     style="opacity:1;stop-opacity:1">
    <title
       id="title375">XY-&gt;HISTOGRAM</title>
    <path
       fill="none"
       stroke="#000000"
       d="m 691.4613,-365.5888 c 7.4301,4.5971 15.1347,10.5067 20.596,17.5888 30.3828,39.3998 1.6742,69.9834 36,106 0.8929,0.9369 1.8224,1.8419 2.7841,2.7162"
       id="path377"
       inkscape:connector-curvature="0" />
    <polygon
       fill="#000000"
       stroke="#000000"
       points="748.7177,-236.5017 752.9917,-242.0454 758.7743,-233.1678 "
       id="polygon379" />
  </g>
  <g
     transform="translate(0,353)"
     id="g1478">
    <g
       style="opacity:1;stop-opacity:1"
       class="cluster"
       id="clust1"
       transform="translate(4,583.4303)">
      <title
         id="title6">cluster_legend</title>
      <polygon
         id="polygon8"
         points="169.4197,-353 8,-353 8,-523 169.4197,-523 "
         stroke="#000000"
         fill="none" />
    </g>
    <g
       style="opacity:1;stop-opacity:1"
       class="node"
       id="node10"
       transform="translate(4,583.4303)">
      <title
         id="title382">Group</title>
      <ellipse
         id="ellipse384"
         ry="19.6"
         rx="50.41"
         cy="-495"
         cx="88.7099"
         stroke="#000000"
         fill="#abd7e6" />
      <text
         id="text386"
         fill="#000000"
         font-size="18.00"
         font-family="DejaVuSans"
         y="-490.60001"
         x="88.7099"
         text-anchor="middle">Group</text>
    </g>
    <g
       style="opacity:1;stop-opacity:1"
       class="node"
       id="node15"
       transform="translate(4,583.4303)">
      <title
         id="title389">Attribute</title>
      <polygon
         id="polygon391"
         points="58.5053,-457.3608 15.7895,-444.8479 15.7895,-427.1521 58.5053,-414.6392 118.9144,-414.6392 161.6302,-427.1521 161.6302,-444.8479 118.9144,-457.3608 "
         stroke="#000000"
         fill="#ffbfca" />
      <text
         id="text393"
         fill="#000000"
         font-size="18.00"
         font-family="DejaVuSans"
         y="-431.60001"
         x="88.7099"
         text-anchor="middle">Attribute</text>
    </g>
    <g
       style="opacity:1;stop-opacity:1"
       class="node"
       id="node30"
       transform="translate(4,583.4303)">
      <title
         id="title396">Dataset</title>
      <polygon
         id="polygon398"
         points="132.2099,-361 132.2099,-397 45.2099,-397 45.2099,-361 "
         stroke="#000000"
         fill="#bfbfbf" />
      <text
         id="text400"
         fill="#000000"
         font-size="18.00"
         font-family="DejaVuSans"
         y="-374.60001"
         x="88.7099"
         text-anchor="middle">Dataset</text>
    </g>
  </g>
</svg>
