<?xml version="1.0" encoding="UTF-8" standalone="no"?>
<svg
   xmlns:dc="http://purl.org/dc/elements/1.1/"
   xmlns:cc="http://creativecommons.org/ns#"
   xmlns:rdf="http://www.w3.org/1999/02/22-rdf-syntax-ns#"
   xmlns:svg="http://www.w3.org/2000/svg"
   xmlns="http://www.w3.org/2000/svg"
   xmlns:sodipodi="http://sodipodi.sourceforge.net/DTD/sodipodi-0.dtd"
   xmlns:inkscape="http://www.inkscape.org/namespaces/inkscape"
   inkscape:version="1.0alpha2 (1:0.92.0+devel+201907090511+74dcc2b)"
   sodipodi:docname="schema.svg"
   id="svg404"
   version="1.1"
   viewBox="0.00 0.00 881.74 587.43"
   height="587pt"
   width="882pt">
  <metadata
     id="metadata410">
    <rdf:RDF>
      <cc:Work
         rdf:about="">
        <dc:format>image/svg+xml</dc:format>
        <dc:type
           rdf:resource="http://purl.org/dc/dcmitype/StillImage" />
      </cc:Work>
    </rdf:RDF>
  </metadata>
  <defs
     id="defs408" />
  <sodipodi:namedview
     inkscape:current-layer="svg404"
     inkscape:window-maximized="1"
     inkscape:window-y="0"
     inkscape:window-x="0"
     inkscape:cy="391.33333"
     inkscape:cx="631.38688"
     inkscape:zoom="0.74806356"
     showgrid="false"
     id="namedview406"
     inkscape:window-height="995"
     inkscape:window-width="1920"
     inkscape:pageshadow="2"
     inkscape:pageopacity="0"
     guidetolerance="10"
     gridtolerance="10"
     objecttolerance="10"
     borderopacity="1"
     inkscape:document-rotation="0"
     bordercolor="#666666"
     pagecolor="#ffffff" />
  <g
     id="g1723">
    <polygon
       style="opacity:1;stop-opacity:1"
       id="polygon4"
       points="877.7436,-583.4303 877.7436,4 -4,4 -4,-583.4303 "
       stroke="transparent"
       fill="#ffffff"
       transform="translate(4,583.4303)" />
    <g
       style="opacity:1;stop-opacity:1"
       class="node"
       id="node1"
       transform="translate(4,583.4303)">
      <title
         id="title11">file</title>
      <ellipse
         id="ellipse13"
         ry="19.6"
         rx="27"
         cy="-323"
         cx="88.7099"
         stroke="#000000"
         fill="#abd7e6" />
      <text
         id="text15"
         fill="#000000"
         font-size="18.00"
         font-family="DejaVuSans"
         y="-318.60001"
         x="88.7099"
         text-anchor="middle">/</text>
    </g>
    <g
       style="opacity:1;stop-opacity:1"
       class="node"
       id="node2"
       transform="translate(4,583.4303)">
      <title
         id="title18">0</title>
      <ellipse
         id="ellipse20"
         ry="19.6"
         rx="27"
         cy="-294"
         cx="271.66031"
         stroke="#000000"
         fill="#abd7e6" />
      <text
         id="text22"
         fill="#000000"
         font-size="18.00"
         font-family="DejaVuSans"
         y="-289.60001"
         x="271.66031"
         text-anchor="middle">0</text>
    </g>
    <g
       style="opacity:1;stop-opacity:1"
       class="edge"
       id="edge2"
       transform="translate(4,583.4303)">
      <title
         id="title25">file-&gt;0</title>
      <path
         inkscape:connector-curvature="0"
         id="path27"
         d="m 115.3124,-318.7832 c 31.5698,5.0043 84.3786,13.3751 119.7767,18.9862"
         stroke="#000000"
         fill="none" />
      <polygon
         id="polygon29"
         points="234.6009,-296.3308 235.6969,-303.2444 245.0256,-298.2219 "
         stroke="#000000"
         fill="#000000" />
    </g>
    <g
       style="opacity:1;stop-opacity:1"
       class="node"
       id="node11"
       transform="translate(4,583.4303)">
      <title
         id="title32">VERSION</title>
      <polygon
         id="polygon34"
         points="302.5117,-374.3608 240.8089,-374.3608 197.1783,-361.8479 197.1783,-344.1521 240.8089,-331.6392 302.5117,-331.6392 346.1422,-344.1521 346.1422,-361.8479 "
         stroke="#000000"
         fill="#ffbfca" />
      <text
         id="text36"
         fill="#000000"
         font-size="18.00"
         font-family="DejaVuSans"
         y="-348.60001"
         x="271.66031"
         text-anchor="middle">VERSION</text>
    </g>
    <g
       style="opacity:1;stop-opacity:1"
       class="edge"
       id="edge1"
       transform="translate(4,583.4303)">
      <title
         id="title39">file-&gt;VERSION</title>
      <path
         inkscape:connector-curvature="0"
         id="path41"
         d="m 115.3124,-327.3623 c 20.833,-3.4161 50.9149,-8.3489 79.1391,-12.9771"
         stroke="#000000"
         fill="none" />
      <polygon
         id="polygon43"
         points="195.0372,-336.8886 193.9044,-343.7963 204.339,-341.9607 "
         stroke="#000000"
         fill="#000000" />
    </g>
    <g
       style="opacity:1;stop-opacity:1"
       class="node"
       id="node3"
       transform="translate(4,583.4303)">
      <title
         id="title46">SwizzledData</title>
      <ellipse
         id="ellipse48"
         ry="19.6"
         rx="97.661499"
         cy="-103"
         cx="479.4816"
         stroke="#000000"
         fill="#abd7e6" />
      <text
         id="text50"
         fill="#000000"
         font-size="18.00"
         font-family="DejaVuSans"
         y="-98.599998"
         x="479.4816"
         text-anchor="middle">SwizzledData</text>
    </g>
    <g
       style="opacity:1;stop-opacity:1"
       class="edge"
       id="edge21"
       transform="translate(4,583.4303)">
      <title
         id="title53">0-&gt;SwizzledData</title>
      <path
         inkscape:connector-curvature="0"
         id="path55"
         d="m 279.4581,-274.8535 c 14.8086,33.9528 50.2556,104.7168 102.4428,142.8535 5.837,4.2655 12.3002,7.9083 19.0404,11.0185"
         stroke="#000000"
         fill="none" />
      <polygon
         id="polygon57"
         points="399.6961,-117.7083 402.4073,-124.162 410.2713,-117.062 "
         stroke="#000000"
         fill="#000000" />
    </g>
    <g
       style="opacity:1;stop-opacity:1"
       class="node"
       id="node4"
       transform="translate(4,583.4303)">
      <title
         id="title60">MipMaps</title>
      <ellipse
         id="ellipse62"
         ry="19.6"
         rx="68.678802"
         cy="-45"
         cx="479.4816"
         stroke="#000000"
         fill="#abd7e6" />
      <text
         id="text64"
         fill="#000000"
         font-size="18.00"
         font-family="DejaVuSans"
         y="-40.599998"
         x="479.4816"
         text-anchor="middle">MipMaps</text>
    </g>
    <g
       style="opacity:1;stop-opacity:1"
       class="edge"
       id="edge23"
       transform="translate(4,583.4303)">
      <title
         id="title67">0-&gt;MipMaps</title>
      <path
         inkscape:connector-curvature="0"
         id="path69"
         d="m 275.9318,-274.259 c 10.3399,43.0022 40.813,145.6483 105.9691,200.259 8.1089,6.7966 17.7618,12.0002 27.793,15.9844"
         stroke="#000000"
         fill="none" />
      <polygon
         id="polygon71"
         points="408.7947,-54.6204 411.1465,-61.2136 419.3893,-54.5573 "
         stroke="#000000"
         fill="#000000" />
    </g>
    <g
       style="opacity:1;stop-opacity:1"
       class="node"
       id="node6"
       transform="translate(4,583.4303)">
      <title
         id="title74">Statistics</title>
      <ellipse
         id="ellipse76"
         ry="19.6"
         rx="70.007103"
         cy="-377"
         cx="479.4816"
         stroke="#000000"
         fill="#abd7e6" />
      <text
         id="text78"
         fill="#000000"
         font-size="18.00"
         font-family="DejaVuSans"
         y="-372.60001"
         x="479.4816"
         text-anchor="middle">Statistics</text>
    </g>
    <g
       style="opacity:1;stop-opacity:1"
       class="edge"
       id="edge6"
       transform="translate(4,583.4303)">
      <title
         id="title81">0-&gt;Statistics</title>
      <path
         inkscape:connector-curvature="0"
         id="path83"
         d="m 296.3739,-302.0112 c 14.7557,-5.1816 33.6524,-12.5278 49.527,-20.9888 17.1903,-9.1623 18.4421,-16.5633 36,-25 10.7028,-5.1428 22.5092,-9.5837 34.1025,-13.3368"
         stroke="#000000"
         fill="none" />
      <polygon
         id="polygon85"
         points="417.1457,-358.0265 415.075,-364.7132 425.6628,-364.328 "
         stroke="#000000"
         fill="#000000" />
    </g>
    <g
       style="opacity:1;stop-opacity:1"
       class="node"
       id="node12"
       transform="translate(4,583.4303)">
      <title
         id="title88">BUNIT</title>
      <polygon
         id="polygon90"
         points="502.3516,-579.3608 456.6116,-579.3608 424.2686,-566.8479 424.2686,-549.1521 456.6116,-536.6392 502.3516,-536.6392 534.6946,-549.1521 534.6946,-566.8479 "
         stroke="#000000"
         fill="#ffbfca" />
      <text
         id="text92"
         fill="#000000"
         font-size="18.00"
         font-family="DejaVuSans"
         y="-553.59998"
         x="479.4816"
         text-anchor="middle">BUNIT</text>
    </g>
    <g
       style="opacity:1;stop-opacity:1"
       class="edge"
       id="edge3"
       transform="translate(4,583.4303)">
      <title
         id="title95">0-&gt;BUNIT</title>
      <path
         inkscape:connector-curvature="0"
         id="path97"
         d="m 298.5277,-297.7928 c 16.1249,-3.7014 35.7077,-10.9729 47.3732,-25.2072 58.3581,-71.2093 -24.6341,-134.7183 36,-204 8.629,-9.8597 20.3789,-16.6116 32.737,-21.228"
         stroke="#000000"
         fill="none" />
      <polygon
         id="polygon99"
         points="415.7571,-544.9115 413.5722,-551.5619 424.1651,-551.3579 "
         stroke="#000000"
         fill="#000000" />
    </g>
    <g
       style="opacity:1;stop-opacity:1"
       class="node"
       id="node13"
       transform="translate(4,583.4303)">
      <title
         id="title102">NAXIS</title>
      <polygon
         id="polygon104"
         points="501.9248,-518.3608 457.0385,-518.3608 425.2991,-505.8479 425.2991,-488.1521 457.0385,-475.6392 501.9248,-475.6392 533.6642,-488.1521 533.6642,-505.8479 "
         stroke="#000000"
         fill="#ffbfca" />
      <text
         id="text106"
         fill="#000000"
         font-size="18.00"
         font-family="DejaVuSans"
         y="-492.60001"
         x="479.4816"
         text-anchor="middle">NAXIS</text>
    </g>
    <g
       style="opacity:1;stop-opacity:1"
       class="edge"
       id="edge4"
       transform="translate(4,583.4303)">
      <title
         id="title109">0-&gt;NAXIS</title>
      <path
         inkscape:connector-curvature="0"
         id="path111"
         d="m 298.1784,-298.0898 c 15.9895,-3.8165 35.5526,-11.1047 47.7225,-24.9102 43.3388,-49.1636 -8.9085,-95.266 36,-143 9.0751,-9.6461 21.1335,-16.3033 33.67,-20.8942"
         stroke="#000000"
         fill="none" />
      <polygon
         id="polygon113"
         points="416.7752,-483.6052 414.6173,-490.2643 425.2092,-490.0174 "
         stroke="#000000"
         fill="#000000" />
    </g>
    <g
       style="opacity:1;stop-opacity:1"
       class="node"
       id="node14"
       transform="translate(4,583.4303)">
      <title
         id="title116">other_attrs</title>
      <polygon
         id="polygon118"
         points="490.6654,-457.3608 468.2978,-457.3608 452.4816,-444.8479 452.4816,-427.1521 468.2978,-414.6392 490.6654,-414.6392 506.4816,-427.1521 506.4816,-444.8479 "
         stroke="#000000"
         fill="#ffbfca" />
      <text
         id="text120"
         fill="#000000"
         font-size="18.00"
         font-family="DejaVuSans"
         y="-431.60001"
         x="479.4816"
         text-anchor="middle">...</text>
    </g>
    <g
       style="opacity:1;stop-opacity:1"
       class="edge"
       id="edge5"
       transform="translate(4,583.4303)">
      <title
         id="title123">0-&gt;other_attrs</title>
      <path
         inkscape:connector-curvature="0"
         id="path125"
         d="m 298.1405,-298.9928 c 15.5742,-4.1288 34.7086,-11.4278 47.7604,-24.0072 28.9513,-27.9036 6.0346,-56.1884 36,-83 16.6465,-14.8946 40.5531,-22.3947 60.5367,-26.1712"
         stroke="#000000"
         fill="none" />
      <polygon
         id="polygon127"
         points="443.1739,-428.7452 442.0346,-435.6519 452.4709,-433.826 "
         stroke="#000000"
         fill="#000000" />
    </g>
    <g
       style="opacity:1;stop-opacity:1"
       class="node"
       id="node16"
       transform="translate(4,583.4303)">
      <title
         id="title130">DATA</title>
      <polygon
         id="polygon132"
         points="448.4816,-303 510.4816,-303 510.4816,-339 448.4816,-339 "
         stroke="#000000"
         fill="#bfbfbf" />
      <text
         id="text134"
         fill="#000000"
         font-size="18.00"
         font-family="DejaVuSans"
         y="-316.60001"
         x="479.4816"
         text-anchor="middle">DATA</text>
    </g>
    <g
       style="opacity:1;stop-opacity:1"
       class="edge"
       id="edge17"
       transform="translate(4,583.4303)">
      <title
         id="title137">0-&gt;DATA</title>
      <path
         inkscape:connector-curvature="0"
         id="path139"
         d="m 298.4038,-297.4745 c 35.4731,-4.6086 98.4332,-12.7884 139.9691,-18.1847"
         stroke="#000000"
         fill="none" />
      <polygon
         id="polygon141"
         points="438.9758,-312.208 438.0739,-319.1497 448.4415,-316.9673 "
         stroke="#000000"
         fill="#000000" />
    </g>
    <g
       style="opacity:1;stop-opacity:1"
       class="node"
       id="node17"
       transform="translate(4,583.4303)">
      <title
         id="title144">COMMENT</title>
      <polygon
         id="polygon146"
         points="423.9816,-249 534.9816,-249 534.9816,-285 423.9816,-285 "
         stroke="#000000"
         fill="#bfbfbf" />
      <text
         id="text148"
         fill="#000000"
         font-size="18.00"
         font-family="DejaVuSans"
         y="-262.60001"
         x="479.4816"
         text-anchor="middle">COMMENT</text>
    </g>
    <g
       style="opacity:1;stop-opacity:1"
       class="edge"
       id="edge18"
       transform="translate(4,583.4303)">
      <title
         id="title151">0-&gt;COMMENT</title>
      <path
         inkscape:connector-curvature="0"
         id="path153"
         d="m 298.4038,-290.5255 c 28.9828,3.7654 76.3145,9.9147 115.3184,14.9821"
         stroke="#000000"
         fill="none" />
      <polygon
         id="polygon155"
         points="413.5924,-272.031 414.4943,-278.9726 423.96,-274.2133 "
         stroke="#000000"
         fill="#000000" />
    </g>
    <g
       style="opacity:1;stop-opacity:1"
       class="node"
       id="node18"
       transform="translate(4,583.4303)">
      <title
         id="title158">HISTORY</title>
      <polygon
         id="polygon160"
         points="431.9816,-195 526.9816,-195 526.9816,-231 431.9816,-231 "
         stroke="#000000"
         fill="#bfbfbf" />
      <text
         id="text162"
         fill="#000000"
         font-size="18.00"
         font-family="DejaVuSans"
         y="-208.60001"
         x="479.4816"
         text-anchor="middle">HISTORY</text>
    </g>
    <g
       style="opacity:1;stop-opacity:1"
       class="edge"
       id="edge19"
       transform="translate(4,583.4303)">
      <title
         id="title165">0-&gt;HISTORY</title>
      <path
         inkscape:connector-curvature="0"
         id="path167"
         d="m 293.5026,-281.7953 c 21.8639,11.8532 56.7172,29.7723 88.3983,41.7953 12.7029,4.8208 26.6311,9.192 39.8865,12.9455"
         stroke="#000000"
         fill="none" />
      <polygon
         id="polygon169"
         points="421.1908,-223.5885 423.0497,-230.3372 431.7612,-224.3073 "
         stroke="#000000"
         fill="#000000" />
    </g>
    <g
       style="opacity:1;stop-opacity:1"
       class="node"
       id="node19"
       transform="translate(4,583.4303)">
      <title
         id="title172">PERCENTILE_RANKS</title>
      <polygon
         id="polygon174"
         points="381.9816,-141 576.9816,-141 576.9816,-177 381.9816,-177 "
         stroke="#000000"
         fill="#bfbfbf" />
      <text
         id="text176"
         fill="#000000"
         font-size="18.00"
         font-family="DejaVuSans"
         y="-154.60001"
         x="479.4816"
         text-anchor="middle">PERCENTILE_RANKS</text>
    </g>
    <g
       style="opacity:1;stop-opacity:1"
       class="edge"
       id="edge20"
       transform="translate(4,583.4303)">
      <title
         id="title179">0-&gt;PERCENTILE_RANKS</title>
      <path
         inkscape:connector-curvature="0"
         id="path181"
         d="m 284.9351,-276.2549 c 18.9026,24.0186 55.8706,66.5868 96.9658,90.2549 3.0238,1.7415 6.1654,3.3753 9.3884,4.9076"
         stroke="#000000"
         fill="none" />
      <polygon
         id="polygon183"
         points="389.9929,-177.8394 392.7986,-184.2525 400.5573,-177.0377 "
         stroke="#000000"
         fill="#000000" />
    </g>
    <g
       style="opacity:1;stop-opacity:1"
       class="node"
       id="node20"
       transform="translate(4,583.4303)">
      <title
         id="title186">ZYXW</title>
      <polygon
         id="polygon188"
         points="621.903,-85 691.903,-85 691.903,-121 621.903,-121 "
         stroke="#000000"
         fill="#bfbfbf" />
      <text
         id="text190"
         fill="#000000"
         font-size="18.00"
         font-family="DejaVuSans"
         y="-98.599998"
         x="656.90302"
         text-anchor="middle">ZYXW</text>
    </g>
    <g
       style="opacity:1;stop-opacity:1"
       class="edge"
       id="edge22"
       transform="translate(4,583.4303)">
      <title
         id="title193">SwizzledData-&gt;ZYXW</title>
      <path
         inkscape:connector-curvature="0"
         id="path195"
         d="m 577.2744,-103 c 11.9294,0 23.6373,0 34.2488,0"
         stroke="#000000"
         fill="none" />
      <polygon
         id="polygon197"
         points="611.7367,-99.5001 611.7368,-106.5001 621.7368,-103 "
         stroke="#000000"
         fill="#000000" />
    </g>
    <g
       style="opacity:1;stop-opacity:1"
       class="node"
       id="node5"
       transform="translate(4,583.4303)">
      <title
         id="title200">mmDATA</title>
      <ellipse
         id="ellipse202"
         ry="19.6"
         rx="43.681801"
         cy="-45"
         cx="656.90302"
         stroke="#000000"
         fill="#abd7e6" />
      <text
         id="text204"
         fill="#000000"
         font-size="18.00"
         font-family="DejaVuSans"
         y="-40.599998"
         x="656.90302"
         text-anchor="middle">DATA</text>
    </g>
    <g
       style="opacity:1;stop-opacity:1"
       class="edge"
       id="edge24"
       transform="translate(4,583.4303)">
      <title
         id="title207">MipMaps-&gt;mmDATA</title>
      <path
         inkscape:connector-curvature="0"
         id="path209"
         d="m 548.0773,-45 c 18.0078,0 37.183,0 54.3406,0"
         stroke="#000000"
         fill="none" />
      <polygon
         id="polygon211"
         points="602.8118,-41.5001 602.8118,-48.5001 612.8118,-45 "
         stroke="#000000"
         fill="#000000" />
    </g>
    <g
       style="opacity:1;stop-opacity:1"
       class="node"
       id="node21"
       transform="translate(4,583.4303)">
      <title
         id="title214">DATA_XY_2</title>
      <polygon
         id="polygon216"
         points="747.7436,-54 862.7436,-54 862.7436,-90 747.7436,-90 "
         stroke="#000000"
         fill="#bfbfbf" />
      <text
         id="text218"
         fill="#000000"
         font-size="18.00"
         font-family="DejaVuSans"
         y="-67.599998"
         x="805.24359"
         text-anchor="middle">DATA_XY_2</text>
    </g>
    <g
       style="opacity:1;stop-opacity:1"
       class="edge"
       id="edge25"
       transform="translate(4,583.4303)">
      <title
         id="title221">mmDATA-&gt;DATA_XY_2</title>
      <path
         inkscape:connector-curvature="0"
         id="path223"
         d="m 697.8304,-52.4493 c 12.2325,-2.2265 25.9861,-4.7299 39.4638,-7.183"
         stroke="#000000"
         fill="none" />
      <polygon
         id="polygon225"
         points="738.3055,-56.2588 737.052,-63.1456 747.5171,-61.493 "
         stroke="#000000"
         fill="#000000" />
    </g>
    <g
       style="opacity:1;stop-opacity:1"
       class="node"
       id="node22"
       transform="translate(4,583.4303)">
      <title
         id="title228">DATA_XY_4</title>
      <polygon
         id="polygon230"
         points="747.7436,0 862.7436,0 862.7436,-36 747.7436,-36 "
         stroke="#000000"
         fill="#bfbfbf" />
      <text
         id="text232"
         fill="#000000"
         font-size="18.00"
         font-family="DejaVuSans"
         y="-13.6"
         x="805.24359"
         text-anchor="middle">DATA_XY_4</text>
    </g>
    <g
       style="opacity:1;stop-opacity:1"
       class="edge"
       id="edge26"
       transform="translate(4,583.4303)">
      <title
         id="title235">mmDATA-&gt;DATA_XY_4</title>
      <path
         inkscape:connector-curvature="0"
         id="path237"
         d="m 697.8304,-37.5507 c 12.2325,2.2265 25.9861,4.7299 39.4638,7.183"
         stroke="#000000"
         fill="none" />
      <polygon
         id="polygon239"
         points="737.052,-26.8544 738.3055,-33.7412 747.5171,-28.507 "
         stroke="#000000"
         fill="#000000" />
    </g>
    <g
       style="opacity:1;stop-opacity:1"
       class="node"
       id="node7"
       transform="translate(4,583.4303)">
      <title
         id="title242">XY</title>
      <ellipse
         id="ellipse244"
         ry="19.6"
         rx="28.0702"
         cy="-377"
         cx="656.90302"
         stroke="#000000"
         fill="#abd7e6" />
      <text
         id="text246"
         fill="#000000"
         font-size="18.00"
         font-family="DejaVuSans"
         y="-372.60001"
         x="656.90302"
         text-anchor="middle">XY</text>
    </g>
    <g
       style="opacity:1;stop-opacity:1"
       class="edge"
       id="edge8"
       transform="translate(4,583.4303)">
      <title
         id="title249">Statistics-&gt;XY</title>
      <path
         inkscape:connector-curvature="0"
         id="path251"
         d="m 549.6032,-377 c 23.425,0 48.6606,0 68.7698,0"
         stroke="#000000"
         fill="none" />
      <polygon
         id="polygon253"
         points="618.3848,-373.5001 618.3849,-380.5001 628.3848,-377 "
         stroke="#000000"
         fill="#000000" />
    </g>
    <g
       style="opacity:1;stop-opacity:1"
       class="node"
       id="node8"
       transform="translate(4,583.4303)">
      <title
         id="title256">Z</title>
      <ellipse
         id="ellipse258"
         ry="19.6"
         rx="27"
         cy="-319"
         cx="656.90302"
         stroke="#000000"
         fill="#abd7e6" />
      <text
         id="text260"
         fill="#000000"
         font-size="18.00"
         font-family="DejaVuSans"
         y="-314.60001"
         x="656.90302"
         text-anchor="middle">Z</text>
    </g>
    <g
       style="opacity:1;stop-opacity:1"
       class="edge"
       id="edge16"
       transform="translate(4,583.4303)">
      <title
         id="title263">Statistics-&gt;Z</title>
      <path
         inkscape:connector-curvature="0"
         id="path265"
         d="m 529.3016,-362.8155 c 15.3743,4.5438 32.3197,9.7218 47.7607,14.8155 15.3617,5.0675 32.2169,11.1165 46.4656,16.3755"
         stroke="#000000"
         fill="none" />
      <polygon
         id="polygon267"
         points="622.3327,-328.3349 624.7714,-334.8963 632.9256,-328.1316 "
         stroke="#000000"
         fill="#000000" />
    </g>
    <g
       style="opacity:1;stop-opacity:1"
       class="node"
       id="node9"
       transform="translate(4,583.4303)">
      <title
         id="title270">XYZ</title>
      <ellipse
         id="ellipse272"
         ry="19.6"
         rx="36.540501"
         cy="-435"
         cx="656.90302"
         stroke="#000000"
         fill="#abd7e6" />
      <text
         id="text274"
         fill="#000000"
         font-size="18.00"
         font-family="DejaVuSans"
         y="-430.60001"
         x="656.90302"
         text-anchor="middle">XYZ</text>
    </g>
    <g
       style="opacity:1;stop-opacity:1"
       class="edge"
       id="edge7"
       transform="translate(4,583.4303)">
      <title
         id="title277">Statistics-&gt;XYZ</title>
      <path
         inkscape:connector-curvature="0"
         id="path279"
         d="m 529.3016,-391.1845 c 15.3743,-4.5438 32.3197,-9.7218 47.7607,-14.8155 13.169,-4.3442 27.4356,-9.4097 40.2168,-14.0804"
         stroke="#000000"
         fill="none" />
      <polygon
         id="polygon281"
         points="618.5458,-416.817 616.1272,-423.3859 626.7206,-423.5567 "
         stroke="#000000"
         fill="#000000" />
    </g>
    <g
       style="opacity:1;stop-opacity:1"
       class="node"
       id="node23"
       transform="translate(4,583.4303)">
      <title
         id="title284">SUM</title>
      <polygon
         id="polygon286"
         points="776.7436,-521 833.7436,-521 833.7436,-557 776.7436,-557 "
         stroke="#000000"
         fill="#bfbfbf" />
      <text
         id="text288"
         fill="#000000"
         font-size="18.00"
         font-family="DejaVuSans"
         y="-534.59998"
         x="805.24359"
         text-anchor="middle">SUM</text>
    </g>
    <g
       style="opacity:1;stop-opacity:1"
       class="edge"
       id="edge9"
       transform="translate(4,583.4303)">
      <title
         id="title291">XY-&gt;SUM</title>
      <path
         inkscape:connector-curvature="0"
         id="path293"
         d="m 680.1476,-388.4112 c 7.4301,-4.5971 15.1347,-10.5067 20.596,-17.5888 30.3828,-39.3998 1.6741,-69.9834 36,-106 8.035,-8.4307 19.027,-14.2804 29.8537,-18.3183"
         stroke="#000000"
         fill="none" />
      <polygon
         id="polygon295"
         points="767.9955,-527.0936 765.8111,-533.744 776.404,-533.5394 "
         stroke="#000000"
         fill="#000000" />
    </g>
    <g
       style="opacity:1;stop-opacity:1"
       class="node"
       id="node24"
       transform="translate(4,583.4303)">
      <title
         id="title298">SUM_SQ</title>
      <polygon
         id="polygon300"
         points="759.2436,-467 851.2436,-467 851.2436,-503 759.2436,-503 "
         stroke="#000000"
         fill="#bfbfbf" />
      <text
         id="text302"
         fill="#000000"
         font-size="18.00"
         font-family="DejaVuSans"
         y="-480.60001"
         x="805.24359"
         text-anchor="middle">SUM_SQ</text>
    </g>
    <g
       style="opacity:1;stop-opacity:1"
       class="edge"
       id="edge10"
       transform="translate(4,583.4303)">
      <title
         id="title305">XY-&gt;SUM_SQ</title>
      <path
         inkscape:connector-curvature="0"
         id="path307"
         d="m 679.086,-389.3545 c 7.3449,-4.6727 15.2673,-10.3889 21.6576,-16.6455 20.0851,-19.665 13.9737,-34.5368 36,-52 4.0286,-3.194 8.482,-6.0508 13.1274,-8.5976"
         stroke="#000000"
         fill="none" />
      <polygon
         id="polygon309"
         points="751.5795,-463.5381 748.4665,-469.8078 758.9798,-471.1201 "
         stroke="#000000"
         fill="#000000" />
    </g>
    <g
       style="opacity:1;stop-opacity:1"
       class="node"
       id="node25"
       transform="translate(4,583.4303)">
      <title
         id="title312">MAX</title>
      <polygon
         id="polygon314"
         points="777.2436,-413 833.2436,-413 833.2436,-449 777.2436,-449 "
         stroke="#000000"
         fill="#bfbfbf" />
      <text
         id="text316"
         fill="#000000"
         font-size="18.00"
         font-family="DejaVuSans"
         y="-426.60001"
         x="805.24359"
         text-anchor="middle">MAX</text>
    </g>
    <g
       style="opacity:1;stop-opacity:1"
       class="edge"
       id="edge11"
       transform="translate(4,583.4303)">
      <title
         id="title319">XY-&gt;MAX</title>
      <path
         inkscape:connector-curvature="0"
         id="path321"
         d="m 682.0669,-386.1604 c 23.4847,-8.549 58.834,-21.4171 85.6492,-31.1786"
         stroke="#000000"
         fill="none" />
      <polygon
         id="polygon323"
         points="768.972,-414.0714 766.5775,-420.6491 777.1716,-420.781 "
         stroke="#000000"
         fill="#000000" />
    </g>
    <g
       style="opacity:1;stop-opacity:1"
       class="node"
       id="node26"
       transform="translate(4,583.4303)">
      <title
         id="title326">MIN</title>
      <polygon
         id="polygon328"
         points="778.2436,-359 832.2436,-359 832.2436,-395 778.2436,-395 "
         stroke="#000000"
         fill="#bfbfbf" />
      <text
         id="text330"
         fill="#000000"
         font-size="18.00"
         font-family="DejaVuSans"
         y="-372.60001"
         x="805.24359"
         text-anchor="middle">MIN</text>
    </g>
    <g
       style="opacity:1;stop-opacity:1"
       class="edge"
       id="edge12"
       transform="translate(4,583.4303)">
      <title
         id="title333">XY-&gt;MIN</title>
      <path
         inkscape:connector-curvature="0"
         id="path335"
         d="m 685.5045,-377 c 23.5309,0 57.0524,0 82.6452,0"
         stroke="#000000"
         fill="none" />
      <polygon
         id="polygon337"
         points="768.2296,-373.5001 768.2297,-380.5001 778.2297,-377 "
         stroke="#000000"
         fill="#000000" />
    </g>
    <g
       style="opacity:1;stop-opacity:1"
       class="node"
       id="node27"
       transform="translate(4,583.4303)">
      <title
         id="title340">NAN_COUNT</title>
      <polygon
         id="polygon342"
         points="740.2436,-305 870.2436,-305 870.2436,-341 740.2436,-341 "
         stroke="#000000"
         fill="#bfbfbf" />
      <text
         id="text344"
         fill="#000000"
         font-size="18.00"
         font-family="DejaVuSans"
         y="-318.60001"
         x="805.24359"
         text-anchor="middle">NAN_COUNT</text>
    </g>
    <g
       style="opacity:1;stop-opacity:1"
       class="edge"
       id="edge13"
       transform="translate(4,583.4303)">
      <title
         id="title347">XY-&gt;NAN_COUNT</title>
      <path
         inkscape:connector-curvature="0"
         id="path349"
         d="m 682.0669,-367.8396 c 17.5757,6.398 41.7967,15.2151 64.1125,23.3386"
         stroke="#000000"
         fill="none" />
      <polygon
         id="polygon351"
         points="745.0077,-341.2028 747.4023,-347.7806 755.6018,-341.071 "
         stroke="#000000"
         fill="#000000" />
    </g>
    <g
       style="opacity:1;stop-opacity:1"
       class="node"
       id="node28"
       transform="translate(4,583.4303)">
      <title
         id="title354">PERCENTILES</title>
      <polygon
         id="polygon356"
         points="736.7436,-251 873.7436,-251 873.7436,-287 736.7436,-287 "
         stroke="#000000"
         fill="#bfbfbf" />
      <text
         id="text358"
         fill="#000000"
         font-size="18.00"
         font-family="DejaVuSans"
         y="-264.60001"
         x="805.24359"
         text-anchor="middle">PERCENTILES</text>
    </g>
    <g
       style="opacity:1;stop-opacity:1"
       class="edge"
       id="edge14"
       transform="translate(4,583.4303)">
      <title
         id="title361">XY-&gt;PERCENTILES</title>
      <path
         inkscape:connector-curvature="0"
         id="path363"
         d="m 679.086,-364.6455 c 7.3449,4.6727 15.2673,10.3889 21.6576,16.6455 20.0851,19.665 13.9737,34.5368 36,52 1.5776,1.2508 3.2204,2.4499 4.9143,3.5989"
         stroke="#000000"
         fill="none" />
      <polygon
         id="polygon365"
         points="740.1202,-289.241 743.7398,-295.2326 750.4894,-287.0659 "
         stroke="#000000"
         fill="#000000" />
    </g>
    <g
       style="opacity:1;stop-opacity:1"
       class="node"
       id="node29"
       transform="translate(4,583.4303)">
      <title
         id="title368">HISTOGRAM</title>
      <polygon
         id="polygon370"
         points="742.2436,-197 868.2436,-197 868.2436,-233 742.2436,-233 "
         stroke="#000000"
         fill="#bfbfbf" />
      <text
         id="text372"
         fill="#000000"
         font-size="18.00"
         font-family="DejaVuSans"
         y="-210.60001"
         x="805.24359"
         text-anchor="middle">HISTOGRAM</text>
    </g>
    <g
       style="opacity:1;stop-opacity:1"
       class="edge"
       id="edge15"
       transform="translate(4,583.4303)">
      <title
         id="title375">XY-&gt;HISTOGRAM</title>
      <path
         inkscape:connector-curvature="0"
         id="path377"
         d="m 680.1476,-365.5888 c 7.4301,4.5971 15.1347,10.5067 20.596,17.5888 30.3828,39.3998 1.6741,69.9834 36,106 0.8929,0.9369 1.8224,1.8419 2.784,2.7162"
         stroke="#000000"
         fill="none" />
      <polygon
         id="polygon379"
         points="737.4039,-236.5017 741.678,-242.0454 747.4606,-233.1678 "
         stroke="#000000"
         fill="#000000" />
    </g>
    <g
       style="opacity:1;stop-opacity:1"
       class="cluster"
       id="clust1"
       transform="translate(4,936.4303)">
      <title
         id="title6">cluster_legend</title>
      <polygon
         id="polygon8"
         points="8,-523 169.4197,-523 169.4197,-353 8,-353 "
         stroke="#000000"
         fill="none" />
    </g>
    <g
       style="opacity:1;stop-opacity:1"
       class="node"
       id="node10"
       transform="translate(4,936.4303)">
      <title
         id="title382">Group</title>
      <ellipse
         id="ellipse384"
         ry="19.6"
         rx="50.41"
         cy="-495"
         cx="88.7099"
         stroke="#000000"
         fill="#abd7e6" />
      <text
         id="text386"
         fill="#000000"
         font-size="18.00"
         font-family="DejaVuSans"
         y="-490.60001"
         x="88.7099"
         text-anchor="middle">Group</text>
    </g>
    <g
       style="opacity:1;stop-opacity:1"
       class="node"
       id="node15"
       transform="translate(4,936.4303)">
      <title
         id="title389">Attribute</title>
      <polygon
         id="polygon391"
         points="15.7895,-427.1521 58.5053,-414.6392 118.9144,-414.6392 161.6302,-427.1521 161.6302,-444.8479 118.9144,-457.3608 58.5053,-457.3608 15.7895,-444.8479 "
         stroke="#000000"
         fill="#ffbfca" />
      <text
         id="text393"
         fill="#000000"
         font-size="18.00"
         font-family="DejaVuSans"
         y="-431.60001"
         x="88.7099"
         text-anchor="middle">Attribute</text>
    </g>
    <g
       style="opacity:1;stop-opacity:1"
       class="node"
       id="node30"
       transform="translate(4,936.4303)">
      <title
         id="title396">Dataset</title>
      <polygon
         id="polygon398"
         points="45.2099,-397 45.2099,-361 132.2099,-361 132.2099,-397 "
         stroke="#000000"
         fill="#bfbfbf" />
      <text
         id="text400"
         fill="#000000"
         font-size="18.00"
         font-family="DejaVuSans"
         y="-374.60001"
         x="88.7099"
         text-anchor="middle">Dataset</text>
    </g>
  </g>
</svg>
