<?xml version="1.0" encoding="UTF-8" standalone="no"?>
<!-- Generated by graphviz version 2.40.1 (20161225.0304)
 -->

<!-- Title: %3 Pages: 1 -->

<svg
   xmlns:dc="http://purl.org/dc/elements/1.1/"
   xmlns:cc="http://creativecommons.org/ns#"
   xmlns:rdf="http://www.w3.org/1999/02/22-rdf-syntax-ns#"
   xmlns:svg="http://www.w3.org/2000/svg"
   xmlns="http://www.w3.org/2000/svg"
   xmlns:sodipodi="http://sodipodi.sourceforge.net/DTD/sodipodi-0.dtd"
   xmlns:inkscape="http://www.inkscape.org/namespaces/inkscape"
   width="1024pt"
   height="371pt"
   viewBox="0.00 0.00 1023.60 371.00"
   version="1.1"
   id="svg3824"
   sodipodi:docname="schema.svg"
   inkscape:version="0.92.3 (2405546, 2018-03-11)">
  <sodipodi:namedview
     pagecolor="#ffffff"
     bordercolor="#666666"
     borderopacity="1"
     objecttolerance="10"
     gridtolerance="10"
     guidetolerance="10"
     inkscape:pageopacity="0"
     inkscape:pageshadow="2"
     inkscape:window-width="1768"
     inkscape:window-height="1055"
     id="namedview3826"
     showgrid="false"
     inkscape:zoom="0.87304688"
     inkscape:cx="682.66667"
     inkscape:cy="247.33333"
     inkscape:window-x="152"
     inkscape:window-y="0"
     inkscape:window-maximized="1"
     inkscape:current-layer="svg3824" />
  <metadata
     id="metadata3830">
    <rdf:RDF>
      <cc:Work
         rdf:about="">
        <dc:format>image/svg+xml</dc:format>
        <dc:type
           rdf:resource="http://purl.org/dc/dcmitype/StillImage" />
        <dc:title></dc:title>
      </cc:Work>
    </rdf:RDF>
  </metadata>
  <defs
     id="defs3828" />
  <polygon
     transform="translate(4,367)"
     stroke="transparent"
     points="1019.5984,-367 1019.5984,4 -4,4 -4,-367 "
     id="polygon3408"
     style="fill:#ffffff" />
  <ellipse
     style="fill:#abd7e6;stroke:#000000"
     id="ellipse3419"
     ry="18"
     rx="27"
     cy="61"
     cx="355.80261" />
  <text
     style="font-size:14px;font-family:Latin Modern Sans;text-anchor:middle;fill:#000000"
     id="text3421"
     font-size="14.00"
     y="64.700012"
     x="355.80261">/</text>
  <ellipse
     style="fill:#abd7e6;stroke:#000000"
     id="ellipse3426"
     ry="18"
     rx="27"
     cy="133"
     cx="404.80261" />
  <text
     style="font-size:14px;font-family:Latin Modern Sans;text-anchor:middle;fill:#000000"
     id="text3428"
     font-size="14.00"
     y="136.7"
     x="404.80261">0</text>
  <path
     style="fill:none;stroke:#000000"
     inkscape:connector-curvature="0"
     id="path3433"
     d="m 367.1673,77.6992 c 6.1226,8.9965 13.799,20.2761 20.6194,30.2979" />
  <polygon
     transform="translate(4,367)"
     style="fill:#000000;stroke:#000000"
     id="polygon3435"
     points="389.4995,-250.6087 380.9797,-256.9066 386.7667,-260.845 " />
  <polygon
     transform="translate(4,367)"
     style="fill:#ffbfca;stroke:#000000"
     id="polygon3440"
     points="250.2776,-241.4558 250.2776,-226.5442 281.046,-216 324.5591,-216 355.3275,-226.5442 355.3275,-241.4558 324.5591,-252 281.046,-252 " />
  <text
     style="font-size:14px;font-family:Latin Modern Sans;text-anchor:middle;fill:#000000"
     id="text3442"
     font-size="14.00"
     y="136.7"
     x="306.80261">VERSION</text>
  <path
     style="fill:none;stroke:#000000"
     inkscape:connector-curvature="0"
     id="path3447"
     d="m 344.4378,77.6992 c -5.801,8.5239 -12.9968,19.0974 -19.5379,28.7088" />
  <polygon
     transform="translate(4,367)"
     style="fill:#000000;stroke:#000000"
     id="polygon3449"
     points="315.1357,-252.1222 317.8685,-262.3585 323.6555,-258.4201 " />
  <ellipse
     style="fill:#abd7e6;stroke:#000000"
     id="ellipse3454"
     ry="18"
     rx="59.590099"
     cy="205"
     cx="707.80261" />
  <text
     style="font-size:14px;font-family:Latin Modern Sans;text-anchor:middle;fill:#000000"
     id="text3456"
     font-size="14.00"
     y="208.7"
     x="707.80261">SwizzledData</text>
  <path
     style="fill:none;stroke:#000000"
     inkscape:connector-curvature="0"
     id="path3461"
     d="m 430.6009,138.6367 c 43.3265,9.5317 133.4102,29.6295 209.2017,48.3633 4.3865,1.0842 8.9254,2.2311 13.4812,3.3997" />
  <polygon
     transform="translate(4,367)"
     style="fill:#000000;stroke:#000000"
     id="polygon3463"
     points="659.2314,-174.0227 648.6731,-173.143 650.429,-179.9192 " />
  <ellipse
     style="fill:#abd7e6;stroke:#000000"
     id="ellipse3468"
     ry="18"
     rx="46.292301"
     cy="205"
     cx="856.80261" />
  <text
     style="font-size:14px;font-family:Latin Modern Sans;text-anchor:middle;fill:#000000"
     id="text3470"
     font-size="14.00"
     y="208.7"
     x="856.80261">MipMaps</text>
  <path
     style="fill:none;stroke:#000000"
     inkscape:connector-curvature="0"
     id="path3475"
     d="m 431.5319,136.161 c 61.2935,7.4053 216.6024,27.0616 345.2707,50.839 9.9743,1.8432 20.5935,4.0547 30.726,6.2868" />
  <polygon
     transform="translate(4,367)"
     style="fill:#000000;stroke:#000000"
     id="polygon3477"
     points="813.4569,-171.4872 802.9334,-170.2598 804.4649,-177.0903 " />
  <ellipse
     style="fill:#abd7e6;stroke:#000000"
     id="ellipse3482"
     ry="18"
     rx="42.4939"
     cy="205"
     cx="317.80261" />
  <text
     style="font-size:14px;font-family:Latin Modern Sans;text-anchor:middle;fill:#000000"
     id="text3484"
     font-size="14.00"
     y="208.7"
     x="317.80261">Statistics</text>
  <path
     style="fill:none;stroke:#000000"
     inkscape:connector-curvature="0"
     id="path3489"
     d="m 387.6142,147.2249 c -12.0877,10.0035 -28.5171,23.6003 -42.4011,35.0905" />
  <polygon
     transform="translate(4,367)"
     style="fill:#000000;stroke:#000000"
     id="polygon3491"
     points="333.3847,-178.2059 338.8571,-187.278 343.3201,-181.8852 " />
  <polygon
     transform="translate(4,367)"
     style="fill:#ffbfca;stroke:#000000"
     id="polygon3496"
     points="0.1965,-169.4558 0.1965,-154.5442 23.983,-144 57.6222,-144 81.4086,-154.5442 81.4086,-169.4558 57.6222,-180 23.983,-180 " />
  <text
     style="font-size:14px;font-family:Latin Modern Sans;text-anchor:middle;fill:#000000"
     id="text3498"
     font-size="14.00"
     y="208.7"
     x="44.802601">BUNIT</text>
  <path
     style="fill:none;stroke:#000000"
     inkscape:connector-curvature="0"
     id="path3503"
     d="m 383.9686,144.8765 c -4.8523,2.3505 -10.0881,4.5686 -15.166,6.1235 -117.4419,35.9617 -154.6407,7.0314 -274,36 -3.2277,0.7833 -6.5363,1.7023 -9.8393,2.7033" />
  <polygon
     transform="translate(4,367)"
     style="fill:#000000;stroke:#000000"
     id="polygon3505"
     points="71.1577,-174.1013 79.5811,-180.5275 81.75,-173.872 " />
  <polygon
     transform="translate(4,367)"
     style="fill:#ffbfca;stroke:#000000"
     id="polygon3510"
     points="100.1965,-169.4558 100.1965,-154.5442 123.983,-144 157.6222,-144 181.4086,-154.5442 181.4086,-169.4558 157.6222,-180 123.983,-180 " />
  <text
     style="font-size:14px;font-family:Latin Modern Sans;text-anchor:middle;fill:#000000"
     id="text3512"
     font-size="14.00"
     y="208.7"
     x="144.8026">NAXIS</text>
  <path
     style="fill:none;stroke:#000000"
     inkscape:connector-curvature="0"
     id="path3517"
     d="m 383.8789,144.6018 c -4.8477,2.3647 -10.0589,4.6581 -15.0763,6.3982 -74.6115,25.8762 -97.9916,14.5718 -174,36 -3.108,0.8762 -6.3007,1.8492 -9.4969,2.8763" />
  <polygon
     transform="translate(4,367)"
     style="fill:#000000;stroke:#000000"
     id="polygon3519"
     points="171.7879,-173.9233 180.1509,-180.428 182.3819,-173.7931 " />
  <polygon
     transform="translate(4,367)"
     style="fill:#ffbfca;stroke:#000000"
     id="polygon3524"
     points="199.8026,-169.4558 199.8026,-154.5442 215.6188,-144 237.9863,-144 253.8026,-154.5442 253.8026,-169.4558 237.9863,-180 215.6188,-180 " />
  <text
     style="font-size:14px;font-family:Latin Modern Sans;text-anchor:middle;fill:#000000"
     id="text3526"
     font-size="14.00"
     y="208.7"
     x="230.8026">...</text>
  <path
     style="fill:none;stroke:#000000"
     inkscape:connector-curvature="0"
     id="path3531"
     d="m 383.3049,144.2935 c -4.7265,2.3294 -9.7426,4.6859 -14.5023,6.7065 -44.2516,18.786 -57.7485,17.214 -102,36 -1.7849,0.7577 -3.6059,1.5627 -5.4341,2.3958" />
  <polygon
     transform="translate(4,367)"
     style="fill:#000000;stroke:#000000"
     id="polygon3533"
     points="248.3002,-173.2935 255.8291,-180.7479 258.8344,-174.4258 " />
  <polygon
     transform="translate(4,367)"
     style="fill:#bfbfbf;stroke:#000000"
     id="polygon3538"
     points="427.8026,-180 373.8026,-180 373.8026,-144 427.8026,-144 " />
  <text
     style="font-size:14px;font-family:Latin Modern Sans;text-anchor:middle;fill:#000000"
     id="text3540"
     font-size="14.00"
     y="208.7"
     x="404.80261">DATA</text>
  <path
     style="fill:none;stroke:#000000"
     inkscape:connector-curvature="0"
     id="path3545"
     d="m 404.8026,151.1686 c 0,7.7004 0,16.8571 0,25.4148" />
  <polygon
     transform="translate(4,367)"
     style="fill:#000000;stroke:#000000"
     id="polygon3547"
     points="400.8026,-180.4133 397.3027,-190.4133 404.3027,-190.4132 " />
  <polygon
     transform="translate(4,367)"
     style="fill:#bfbfbf;stroke:#000000"
     id="polygon3552"
     points="533.3026,-180 446.3026,-180 446.3026,-144 533.3026,-144 " />
  <text
     style="font-size:14px;font-family:Latin Modern Sans;text-anchor:middle;fill:#000000"
     id="text3554"
     font-size="14.00"
     y="208.7"
     x="493.80261">COMMENT</text>
  <path
     style="fill:none;stroke:#000000"
     inkscape:connector-curvature="0"
     id="path3559"
     d="m 422.3861,147.2249 c 11.7726,9.5239 27.5712,22.3047 41.3157,33.4239" />
  <polygon
     transform="translate(4,367)"
     style="fill:#000000;stroke:#000000"
     id="polygon3561"
     points="467.511,-180.0336 457.5352,-183.6021 461.9378,-189.0442 " />
  <polygon
     transform="translate(4,367)"
     style="fill:#bfbfbf;stroke:#000000"
     id="polygon3566"
     points="626.3026,-180 551.3026,-180 551.3026,-144 626.3026,-144 " />
  <text
     style="font-size:14px;font-family:Latin Modern Sans;text-anchor:middle;fill:#000000"
     id="text3568"
     font-size="14.00"
     y="208.7"
     x="592.80261">HISTORY</text>
  <path
     style="fill:none;stroke:#000000"
     inkscape:connector-curvature="0"
     id="path3573"
     d="m 428.4469,141.9123 c 26.4424,9.984 70.778,26.7752 117.3681,44.7207" />
  <polygon
     transform="translate(4,367)"
     style="fill:#000000;stroke:#000000"
     id="polygon3575"
     points="551.1585,-176.7642 540.5688,-177.0964 543.0873,-183.6277 " />
  <polygon
     transform="translate(4,367)"
     style="fill:#bfbfbf;stroke:#000000"
     id="polygon3580"
     points="722.8026,-108 664.8026,-108 664.8026,-72 722.8026,-72 " />
  <text
     style="font-size:14px;font-family:Latin Modern Sans;text-anchor:middle;fill:#000000"
     id="text3582"
     font-size="14.00"
     y="280.70001"
     x="697.80261">ZYXW</text>
  <path
     style="fill:none;stroke:#000000"
     inkscape:connector-curvature="0"
     id="path3587"
     d="m 705.2791,223.1686 c -1.0695,7.7004 -2.3412,16.8571 -3.5298,25.4148" />
  <polygon
     transform="translate(4,367)"
     style="fill:#000000;stroke:#000000"
     id="polygon3589"
     points="696.36,-108.4133 694.269,-118.7997 701.2025,-117.8367 " />
  <ellipse
     style="fill:#abd7e6;stroke:#000000"
     id="ellipse3594"
     ry="18"
     rx="35.194"
     cy="277"
     cx="779.80261" />
  <text
     style="font-size:14px;font-family:Latin Modern Sans;text-anchor:middle;fill:#000000"
     id="text3596"
     font-size="14.00"
     y="280.70001"
     x="779.80261">DATA</text>
  <path
     style="fill:none;stroke:#000000"
     inkscape:connector-curvature="0"
     id="path3601"
     d="m 838.9437,221.6992 c -10.3237,9.6534 -23.4587,21.9354 -34.7266,32.4716" />
  <polygon
     transform="translate(4,367)"
     style="fill:#000000;stroke:#000000"
     id="polygon3603"
     points="792.772,-105.8675 797.6858,-115.254 802.4668,-110.141 " />
  <ellipse
     style="fill:#abd7e6;stroke:#000000"
     id="ellipse3608"
     ry="18"
     rx="37.894299"
     cy="277"
     cx="870.80261" />
  <text
     style="font-size:14px;font-family:Latin Modern Sans;text-anchor:middle;fill:#000000"
     id="text3610"
     font-size="14.00"
     y="280.70001"
     x="870.80261">ZYXW</text>
  <path
     style="fill:none;stroke:#000000"
     inkscape:connector-curvature="0"
     id="path3615"
     d="m 860.3354,223.1686 c 1.4973,7.7004 3.2777,16.8571 4.9417,25.4148" />
  <polygon
     transform="translate(4,367)"
     style="fill:#000000;stroke:#000000"
     id="polygon3617"
     points="863.2222,-108.4133 857.8778,-117.5614 864.7491,-118.8975 " />
  <ellipse
     style="fill:#abd7e6;stroke:#000000"
     id="ellipse3622"
     ry="18"
     rx="46.592602"
     cy="277"
     cx="972.80261" />
  <text
     style="font-size:14px;font-family:Latin Modern Sans;text-anchor:middle;fill:#000000"
     id="text3624"
     font-size="14.00"
     y="280.70001"
     x="972.80261">MEAN_Z</text>
  <path
     style="fill:none;stroke:#000000"
     inkscape:connector-curvature="0"
     id="path3629"
     d="m 881.4032,220.2693 c 16.803,10.4295 39.2793,24.3803 57.738,35.8374" />
  <polygon
     transform="translate(4,367)"
     style="fill:#000000;stroke:#000000"
     id="polygon3631"
     points="943.8375,-105.4956 933.4953,-107.7955 937.1869,-113.743 " />
  <polygon
     transform="translate(4,367)"
     style="fill:#bfbfbf;stroke:#000000"
     id="polygon3636"
     points="812.8026,-36 718.8026,-36 718.8026,0 812.8026,0 " />
  <text
     style="font-size:14px;font-family:Latin Modern Sans;text-anchor:middle;fill:#000000"
     id="text3638"
     font-size="14.00"
     y="352.70001"
     x="769.80261">DATA_XY_2</text>
  <path
     style="fill:none;stroke:#000000"
     inkscape:connector-curvature="0"
     id="path3643"
     d="m 777.2791,295.1686 c -1.0695,7.7004 -2.3412,16.8571 -3.5298,25.4148" />
  <polygon
     transform="translate(4,367)"
     style="fill:#000000;stroke:#000000"
     id="polygon3645"
     points="768.36,-36.4133 766.269,-46.7997 773.2025,-45.8367 " />
  <polygon
     transform="translate(4,367)"
     style="fill:#bfbfbf;stroke:#000000"
     id="polygon3650"
     points="924.8026,-36 830.8026,-36 830.8026,0 924.8026,0 " />
  <text
     style="font-size:14px;font-family:Latin Modern Sans;text-anchor:middle;fill:#000000"
     id="text3652"
     font-size="14.00"
     y="352.70001"
     x="881.80261">DATA_XY_4</text>
  <path
     style="fill:none;stroke:#000000"
     inkscape:connector-curvature="0"
     id="path3657"
     d="m 800.4438,291.5703 c 13.5562,9.5691 31.6117,22.3142 47.2693,33.3666" />
  <polygon
     transform="translate(4,367)"
     style="fill:#000000;stroke:#000000"
     id="polygon3659"
     points="852.1213,-36.128 841.9332,-39.0354 845.97,-44.7542 " />
  <ellipse
     style="fill:#abd7e6;stroke:#000000"
     id="ellipse3664"
     ry="18"
     rx="27"
     cy="277"
     cx="317.80261" />
  <text
     style="font-size:14px;font-family:Latin Modern Sans;text-anchor:middle;fill:#000000"
     id="text3666"
     font-size="14.00"
     y="280.70001"
     x="317.80261">XY</text>
  <path
     style="fill:none;stroke:#000000"
     inkscape:connector-curvature="0"
     id="path3671"
     d="m 317.8026,223.1686 c 0,7.7004 0,16.8571 0,25.4148" />
  <polygon
     transform="translate(4,367)"
     style="fill:#000000;stroke:#000000"
     id="polygon3673"
     points="313.8026,-108.4133 310.3027,-118.4133 317.3027,-118.4132 " />
  <ellipse
     style="fill:#abd7e6;stroke:#000000"
     id="ellipse3678"
     ry="18"
     rx="27"
     cy="277"
     cx="389.80261" />
  <text
     style="font-size:14px;font-family:Latin Modern Sans;text-anchor:middle;fill:#000000"
     id="text3680"
     font-size="14.00"
     y="280.70001"
     x="389.80261">Z</text>
  <path
     style="fill:none;stroke:#000000"
     inkscape:connector-curvature="0"
     id="path3685"
     d="m 334.5018,221.6992 c 9.7611,9.7611 22.2099,22.2099 32.8238,32.8238" />
  <polygon
     transform="translate(4,367)"
     style="fill:#000000;stroke:#000000"
     id="polygon3687"
     points="370.6651,-105.1374 361.1191,-109.7337 366.0689,-114.6834 " />
  <ellipse
     style="fill:#abd7e6;stroke:#000000"
     id="ellipse3692"
     ry="18"
     rx="28.695299"
     cy="277"
     cx="243.8026" />
  <text
     style="font-size:14px;font-family:Latin Modern Sans;text-anchor:middle;fill:#000000"
     id="text3694"
     font-size="14.00"
     y="280.70001"
     x="243.8026">XYZ</text>
  <path
     style="fill:none;stroke:#000000"
     inkscape:connector-curvature="0"
     id="path3699"
     d="m 300.6395,221.6992 c -10.1296,9.8559 -23.0756,22.4519 -34.0528,33.1324" />
  <polygon
     transform="translate(4,367)"
     style="fill:#000000;stroke:#000000"
     id="polygon3701"
     points="255.3605,-105.1374 260.087,-114.6196 264.9685,-109.6025 " />
  <polygon
     transform="translate(4,367)"
     style="fill:#bfbfbf;stroke:#000000"
     id="polygon3706"
     points="101.3026,-36 44.3026,-36 44.3026,0 101.3026,0 " />
  <text
     style="font-size:14px;font-family:Latin Modern Sans;text-anchor:middle;fill:#000000"
     id="text3708"
     font-size="14.00"
     y="352.70001"
     x="76.802597">MEAN</text>
  <path
     style="fill:none;stroke:#000000"
     inkscape:connector-curvature="0"
     id="path3713"
     d="m 296.8682,288.5709 c -4.8472,2.3664 -10.0554,4.6682 -15.0656,6.4291 -68.6936,24.1437 -93.0981,12.6365 -166.5395,36.3021" />
  <polygon
     transform="translate(4,367)"
     style="fill:#000000;stroke:#000000"
     id="polygon3715"
     points="101.5635,-32.4628 109.9423,-38.947 112.1571,-32.3066 " />
  <polygon
     transform="translate(4,367)"
     style="fill:#bfbfbf;stroke:#000000"
     id="polygon3720"
     points="173.8026,-36 119.8026,-36 119.8026,0 173.8026,0 " />
  <text
     style="font-size:14px;font-family:Latin Modern Sans;text-anchor:middle;fill:#000000"
     id="text3722"
     font-size="14.00"
     y="352.70001"
     x="150.8026">MAX</text>
  <path
     style="fill:none;stroke:#000000"
     inkscape:connector-curvature="0"
     id="path3727"
     d="m 296.2693,288.211 c -4.7243,2.3344 -9.7305,4.7139 -14.4667,6.789 -38.6914,16.9518 -51.9386,17.835 -94.4074,35.9505" />
  <polygon
     transform="translate(4,367)"
     style="fill:#000000;stroke:#000000"
     id="polygon3729"
     points="174.1838,-32.0491 181.962,-39.2429 184.7504,-32.8223 " />
  <polygon
     transform="translate(4,367)"
     style="fill:#bfbfbf;stroke:#000000"
     id="polygon3734"
     points="245.8026,-36 191.8026,-36 191.8026,0 245.8026,0 " />
  <text
     style="font-size:14px;font-family:Latin Modern Sans;text-anchor:middle;fill:#000000"
     id="text3736"
     font-size="14.00"
     y="352.70001"
     x="222.8026">MIN</text>
  <path
     style="fill:none;stroke:#000000"
     inkscape:connector-curvature="0"
     id="path3741"
     d="m 299.9338,290.5426 c -12.6981,9.6238 -30.1,22.8127 -45.1612,34.2275" />
  <polygon
     transform="translate(4,367)"
     style="fill:#000000;stroke:#000000"
     id="polygon3743"
     points="242.6908,-36.1047 248.5464,-44.9344 252.7746,-39.3556 " />
  <polygon
     transform="translate(4,367)"
     style="fill:#bfbfbf;stroke:#000000"
     id="polygon3748"
     points="363.3026,-36 264.3026,-36 264.3026,0 363.3026,0 " />
  <text
     style="font-size:14px;font-family:Latin Modern Sans;text-anchor:middle;fill:#000000"
     id="text3750"
     font-size="14.00"
     y="352.70001"
     x="317.80261">NAN_COUNT</text>
  <path
     style="fill:none;stroke:#000000"
     inkscape:connector-curvature="0"
     id="path3755"
     d="m 317.8026,295.1686 c 0,7.7004 0,16.8571 0,25.4148" />
  <polygon
     transform="translate(4,367)"
     style="fill:#000000;stroke:#000000"
     id="polygon3757"
     points="313.8026,-36.4133 310.3027,-46.4133 317.3027,-46.4132 " />
  <polygon
     transform="translate(4,367)"
     style="fill:#bfbfbf;stroke:#000000"
     id="polygon3762"
     points="479.8026,-36 381.8026,-36 381.8026,0 479.8026,0 " />
  <text
     style="font-size:14px;font-family:Latin Modern Sans;text-anchor:middle;fill:#000000"
     id="text3764"
     font-size="14.00"
     y="352.70001"
     x="434.80261">HISTOGRAM</text>
  <path
     style="fill:none;stroke:#000000"
     inkscape:connector-curvature="0"
     id="path3769"
     d="m 337.65,289.2138 c 16.0567,9.8811 39.1453,24.0894 58.7856,36.1758" />
  <polygon
     transform="translate(4,367)"
     style="fill:#000000;stroke:#000000"
     id="polygon3771"
     points="401.1793,-36.2297 390.8283,-38.4899 394.4971,-44.4515 " />
  <polygon
     transform="translate(4,367)"
     style="fill:#bfbfbf;stroke:#000000"
     id="polygon3776"
     points="577.8026,-36 497.8026,-36 497.8026,0 577.8026,0 " />
  <text
     style="font-size:14px;font-family:Latin Modern Sans;text-anchor:middle;fill:#000000"
     id="text3778"
     font-size="14.00"
     y="352.70001"
     x="541.80261">HIST_MIN</text>
  <path
     style="fill:none;stroke:#000000"
     inkscape:connector-curvature="0"
     id="path3783"
     d="m 338.7922,288.4188 c 4.8443,2.3742 10.0374,4.7177 15.0104,6.5812 56.8402,21.2999 76.1973,17.4373 138.1158,35.9124" />
  <polygon
     transform="translate(4,367)"
     style="fill:#000000;stroke:#000000"
     id="polygon3785"
     points="497.8014,-33.0593 487.2148,-32.6426 489.2656,-39.3355 " />
  <polygon
     transform="translate(4,367)"
     style="fill:#bfbfbf;stroke:#000000"
     id="polygon3790"
     points="681.8026,-36 595.8026,-36 595.8026,0 681.8026,0 " />
  <text
     style="font-size:14px;font-family:Latin Modern Sans;text-anchor:middle;fill:#000000"
     id="text3792"
     font-size="14.00"
     y="352.70001"
     x="642.80261">HIST_MAX</text>
  <path
     style="fill:none;stroke:#000000"
     inkscape:connector-curvature="0"
     id="path3797"
     d="m 338.6601,288.8009 c 4.8511,2.3544 10.0804,4.5932 15.1425,6.1991 98.4794,31.2416 131.561,11.7357 235.792,35.972" />
  <polygon
     transform="translate(4,367)"
     style="fill:#000000;stroke:#000000"
     id="polygon3799"
     points="595.5686,-33.6274 585.0272,-32.5647 586.6653,-39.3704 " />
  <g
     id="g4439"
     transform="translate(359.59261)">
    <polygon
       points="388.8026,-355 655.8026,-355 655.8026,-280 388.8026,-280 "
       id="polygon3412"
       style="fill:none;stroke:#000000"
       transform="translate(4,367)" />
    <text
       x="526.30261"
       y="27.200012"
       font-size="14.00"
       id="text3414"
       style="font-size:14px;font-family:'Latin Modern Sans';text-anchor:middle;fill:#000000">Legend</text>
    <ellipse
       cx="618.80261"
       cy="61"
       rx="33.2948"
       ry="18"
       id="ellipse3804"
       style="fill:#abd7e6;stroke:#000000" />
    <text
       x="618.80261"
       y="64.700012"
       font-size="14.00"
       id="text3806"
       style="font-size:14px;font-family:'Latin Modern Sans';text-anchor:middle;fill:#000000">Group</text>
    <polygon
       points="471.8474,-298.5442 498.7673,-288 536.8378,-288 563.7577,-298.5442 563.7577,-313.4558 536.8378,-324 498.7673,-324 471.8474,-313.4558 "
       id="polygon3811"
       style="fill:#ffbfca;stroke:#000000"
       transform="translate(4,367)" />
    <text
       x="521.80261"
       y="64.700012"
       font-size="14.00"
       id="text3813"
       style="font-size:14px;font-family:'Latin Modern Sans';text-anchor:middle;fill:#000000">Attribute</text>
    <polygon
       points="397.3026,-324 397.3026,-288 454.3026,-288 454.3026,-324 "
       id="polygon3818"
       style="fill:#bfbfbf;stroke:#000000"
       transform="translate(4,367)" />
    <text
       x="429.80261"
       y="64.700012"
       font-size="14.00"
       id="text3820"
       style="font-size:14px;font-family:'Latin Modern Sans';text-anchor:middle;fill:#000000">Dataset</text>
  </g>
</svg>
